<svg width="30" height="18" fill="none" xmlns="http://www.w3.org/2000/svg"><path d="M27.508 0H2.46C1.104 0 0 1.018 0 2.268v13.464C0 16.982 1.104 18 2.46 18h25.08c1.356 0 2.46-1.018 2.46-2.268V2.268C29.968 1.018 28.864 0 27.508 0zm1.072 2.268v13.464c0 .058-.031.087-.031.145L18.927 8.87l9.559-6.979a.754.754 0 01.094.378zM1.388 15.703V2.268c0-.145.032-.262.095-.378l9.558 6.98-9.621 7.007c0-.058-.032-.116-.032-.174zm13.596-5.612L2.871 1.279h24.195l-12.082 8.812zm-2.839-.408l2.398 1.745a.795.795 0 00.441.145.795.795 0 00.442-.145l2.397-1.745 9.622 7.008H2.524l9.621-7.008z" fill="#fff"/></svg>