<svg width="44" height="59" fill="none" xmlns="http://www.w3.org/2000/svg"><path d="M4.532 58.1h34.796c2.007 0 3.632-1.64 3.632-3.663V4.563C42.96 2.54 41.335.9 39.328.9H4.532C2.525.9.9 2.54.9 4.563v49.874C.9 56.46 2.525 58.1 4.532 58.1zM2.882 4.562c0-.928.741-1.68 1.65-1.68h34.796c.908 0 1.65.752 1.65 1.68v49.876c0 .928-.742 1.68-1.65 1.68H4.532c-.909 0-1.65-.752-1.65-1.68V4.562z" fill="url(#paint0_linear_41:767)" stroke="url(#paint1_linear_41:767)" stroke-width=".2"/><path d="M29.386 41.977l-.052-.135-.108.097c-.434.39-.96.669-1.544.816l-.109.028.04.105 1.617 4.23a84.183 84.183 0 01-.297-.106l-.14-.05-.037-.014-.006-.002h0l-.008-.003-1.477-.538-.083-.03-.04.079-.717 1.399h0l-.226.44-1.784-4.669-.046-.12-.105.074a8.964 8.964 0 00-.07.049 3.041 3.041 0 01-.11.076h0a3.905 3.905 0 01-1.407.602l-.114.024.042.11 2.385 6.242h0c.251.657.633 1.038 1.068 1.038.392 0 .763-.31 1.054-.863h0l1.036-2.02.088.031a104.564 104.564 0 001.995.692c.24.08.458.119.653.119.408 0 .715-.174.857-.5.138-.316.11-.752-.084-1.26l-2.27-5.94zm-5.245 1.809c-.42.288-.875.483-1.344.594l1.344-.594z" fill="url(#paint2_linear_41:767)" stroke="url(#paint3_linear_41:767)" stroke-width=".2"/><path d="M9.46 10.298h24.938a.991.991 0 000-1.982H9.461a.991.991 0 000 1.982z" fill="url(#paint4_linear_41:767)" stroke="url(#paint5_linear_41:767)" stroke-width=".2"/><path d="M9.46 13.86h24.938a.991.991 0 000-1.981H9.461a.991.991 0 000 1.981z" fill="url(#paint6_linear_41:767)" stroke="url(#paint7_linear_41:767)" stroke-width=".2"/><path d="M19.595 43.58l-.105-.074-.046.12-1.783 4.668-.226-.44h0l-.717-1.4-.04-.078-.083.03-1.477.538h0-.001l-.487.174 1.616-4.227.04-.106-.11-.027a3.637 3.637 0 01-1.545-.812l-.108-.097-.052.136-2.268 5.934h0c-.194.508-.221.944-.084 1.26.143.326.449.5.856.5.196 0 .415-.04.653-.12a100.354 100.354 0 001.996-.691l.088-.032 1.035 2.02v.001c.291.553.663.863 1.055.863.436 0 .817-.381 1.067-1.038l2.385-6.24.042-.11-.115-.025a3.862 3.862 0 01-1.407-.6v-.001l-.132-.092a9.484 9.484 0 00-.047-.033z" fill="url(#paint8_linear_41:767)" stroke="url(#paint9_linear_41:767)" stroke-width=".2"/><path d="M21.93 27.473a5.443 5.443 0 100 10.888 5.444 5.444 0 100-10.888zm0 8.906a3.467 3.467 0 01-3.463-3.462 3.467 3.467 0 013.463-3.463 3.467 3.467 0 013.462 3.463 3.467 3.467 0 01-3.462 3.462z" fill="url(#paint10_linear_41:767)" stroke="url(#paint11_linear_41:767)" stroke-width=".2"/><path d="M31.337 32.234h0c-.153.433-.126.846-.024 1.263.05.21.12.418.194.63l.057.162c.056.159.114.32.165.481l-.392-2.536zm0 0c.132-.38.263-.76.385-1.143.276-.86-.012-1.694-.761-2.226m.376 3.37l-11.744-8.042m0 0c.217-.126.418-.275.624-.428l.105-.078a4.65 4.65 0 01.775-.488h0c.361-.17.713-.196 1.094-.171h0c.33.022.66.2.915.356m-3.513.81c-.348.201-.74.29-1.151.327-.32.029-.645.026-.966.023l-.275-.001c-.52 0-.969.125-1.328.375-.36.25-.625.618-.788 1.093h0l-.177.531-.028.083.095.032c-.288.864-.637 1.33-1.394 1.851m6.012-4.315l-4.713 2.432c-.142.426-.296.748-.506 1.026-.21.279-.477.518-.85.775m9.582-5.042s0 0 0 0l-.052.085.052-.085s0 0 0 0zm0 0a15.746 15.746 0 01.665.434c.214.142.421.276.635.39.425.226.873.374 1.434.345m0 0s0 0 0 0l.005.097-.005-.097zm0 0c.48-.025.967-.018 1.358.047h0c.733.123 1.247.559 1.523 1.28l-.091.035.09-.034c.067.175.128.359.187.54.039.118.077.235.116.348.103.292.218.572.382.824m0 0l-.082.054.082-.054s0 0 0 0zm0 0c.181.279.427.497.7.695.138.1.28.193.425.288l.027.017c.135.089.272.178.404.272m0 0s0 0 0 0l-.058.081.058-.081zm-17.38-.357l-.057-.082m.057.082l-.057-.082s0 0 0 0m.057.082c-.21.145-.42.289-.627.438l-.058-.082s0 0 0 0m.628-.438l-.628.438m0 0c-.747.535-1.035 1.37-.762 2.228h0c.042.131.086.26.13.389.158.463.313.916.334 1.394l.1-.004-.1.004c.014.318-.049.627-.142.937-.046.154-.1.308-.155.464l-.025.068c-.047.132-.095.266-.139.4h0c-.277.858.007 1.695.75 2.232.141.1.288.198.433.294l.223.148c.216.146.423.297.608.472h0c.276.26.455.59.598.95.072.181.134.367.195.555l.03.095c.05.156.101.314.156.466h0c.301.827 1.06 1.34 1.974 1.346h.348c.51-.003 1.01-.006 1.495.117l.024-.096-.024.096c.527.135.951.438 1.398.757.107.076.215.153.327.23.793.547 1.72.544 2.514-.003h0c.168-.115.332-.231.498-.348l.058-.041c.85-.599 1.682-.716 2.716-.712h.297c.92-.008 1.681-.534 1.979-1.376h0c.055-.157.103-.317.15-.474l.004-.01c.048-.162.097-.322.151-.477.11-.312.245-.602.456-.85.201-.237.444-.43.703-.614.115-.081.233-.16.351-.238l.046-.03c.134-.09.268-.18.399-.275.715-.52 1-1.36.735-2.188l-18.833-5.906zm9.033 11.35c-4.022 0-7.295-3.27-7.295-7.29s3.273-7.292 7.295-7.292 7.295 3.272 7.295 7.293c0 4.02-3.273 7.29-7.295 7.29z" fill="url(#paint12_linear_41:767)" stroke="url(#paint13_linear_41:767)" stroke-width=".2"/><defs><linearGradient id="paint0_linear_41:767" x1="1" y1="1" x2="49.978" y2="7.963" gradientUnits="userSpaceOnUse"><stop stop-color="#026FC5"/><stop offset="1" stop-color="#02AEC5"/></linearGradient><linearGradient id="paint1_linear_41:767" x1="1" y1="1" x2="49.978" y2="7.963" gradientUnits="userSpaceOnUse"><stop stop-color="#026FC5"/><stop offset="1" stop-color="#02AEC5"/></linearGradient><linearGradient id="paint2_linear_41:767" x1="22.698" y1="42.013" x2="33.13" y2="43.911" gradientUnits="userSpaceOnUse"><stop stop-color="#026FC5"/><stop offset="1" stop-color="#02AEC5"/></linearGradient><linearGradient id="paint3_linear_41:767" x1="22.698" y1="42.013" x2="33.13" y2="43.911" gradientUnits="userSpaceOnUse"><stop stop-color="#026FC5"/><stop offset="1" stop-color="#02AEC5"/></linearGradient><linearGradient id="paint4_linear_41:767" x1="8.57" y1="8.416" x2="11.952" y2="18.236" gradientUnits="userSpaceOnUse"><stop stop-color="#026FC5"/><stop offset="1" stop-color="#02AEC5"/></linearGradient><linearGradient id="paint5_linear_41:767" x1="8.57" y1="8.416" x2="11.952" y2="18.236" gradientUnits="userSpaceOnUse"><stop stop-color="#026FC5"/><stop offset="1" stop-color="#02AEC5"/></linearGradient><linearGradient id="paint6_linear_41:767" x1="8.57" y1="11.979" x2="11.952" y2="21.798" gradientUnits="userSpaceOnUse"><stop stop-color="#026FC5"/><stop offset="1" stop-color="#02AEC5"/></linearGradient><linearGradient id="paint7_linear_41:767" x1="8.57" y1="11.979" x2="11.952" y2="21.798" gradientUnits="userSpaceOnUse"><stop stop-color="#026FC5"/><stop offset="1" stop-color="#02AEC5"/></linearGradient><linearGradient id="paint8_linear_41:767" x1="12.133" y1="42.021" x2="22.564" y2="43.919" gradientUnits="userSpaceOnUse"><stop stop-color="#026FC5"/><stop offset="1" stop-color="#02AEC5"/></linearGradient><linearGradient id="paint9_linear_41:767" x1="12.133" y1="42.021" x2="22.564" y2="43.919" gradientUnits="userSpaceOnUse"><stop stop-color="#026FC5"/><stop offset="1" stop-color="#02AEC5"/></linearGradient><linearGradient id="paint10_linear_41:767" x1="16.586" y1="27.573" x2="28.883" y2="29.953" gradientUnits="userSpaceOnUse"><stop stop-color="#026FC5"/><stop offset="1" stop-color="#02AEC5"/></linearGradient><linearGradient id="paint11_linear_41:767" x1="16.586" y1="27.573" x2="28.883" y2="29.953" gradientUnits="userSpaceOnUse"><stop stop-color="#026FC5"/><stop offset="1" stop-color="#02AEC5"/></linearGradient><linearGradient id="paint12_linear_41:767" x1="12.133" y1="23.12" x2="34.676" y2="27.484" gradientUnits="userSpaceOnUse"><stop stop-color="#026FC5"/><stop offset="1" stop-color="#02AEC5"/></linearGradient><linearGradient id="paint13_linear_41:767" x1="12.133" y1="23.12" x2="34.676" y2="27.484" gradientUnits="userSpaceOnUse"><stop stop-color="#026FC5"/><stop offset="1" stop-color="#02AEC5"/></linearGradient></defs></svg>