<svg width="58" height="58" fill="none" xmlns="http://www.w3.org/2000/svg"><mask id="a" maskUnits="userSpaceOnUse" x="0" y="0" width="58" height="58" fill="#000"><path fill="#fff" d="M0 0h58v58H0z"/><path d="M51.4 38.408V26.2a4.672 4.672 0 00-4.667-4.667h-4.666A4.672 4.672 0 0037.4 26.2v26.133a2.8 2.8 0 01-2.8 2.8H24.333a2.8 2.8 0 01-2.8-2.8v-2.8H31.8a2.8 2.8 0 002.8-2.8V11.267a.933.933 0 00-.273-.66l-3.734-3.734a.933.933 0 00-.66-.273H29V3.8A2.8 2.8 0 0026.2 1H3.8A2.8 2.8 0 001 3.8v37.333a2.8 2.8 0 002.8 2.8h2.8v2.8a2.8 2.8 0 002.8 2.8h10.267v2.8A4.672 4.672 0 0024.333 57H34.6a4.672 4.672 0 004.667-4.667V26.2a2.8 2.8 0 012.8-2.8h4.666a2.8 2.8 0 012.8 2.8v12.208a6.533 6.533 0 00-5.6 6.459V54.2a2.8 2.8 0 002.8 2.8H54.2a2.8 2.8 0 002.8-2.8v-9.333a6.533 6.533 0 00-5.6-6.459zM32.347 11.267h-2.414V8.853l2.414 2.414zM3.8 42.067a.934.934 0 01-.933-.934V3.8a.933.933 0 01.933-.933h22.4a.934.934 0 01.933.933v2.8H9.4a2.8 2.8 0 00-2.8 2.8v32.667H3.8zm4.667 4.666V9.4a.933.933 0 01.933-.933h18.667V12.2a.934.934 0 00.933.933h3.733v33.6a.933.933 0 01-.933.934H9.4a.934.934 0 01-.933-.934zM55.133 54.2a.934.934 0 01-.933.933h-7.467a.933.933 0 01-.933-.933v-9.333a4.667 4.667 0 019.333 0V54.2z"/></mask><path d="M51.4 38.408V26.2a4.672 4.672 0 00-4.667-4.667h-4.666A4.672 4.672 0 0037.4 26.2v26.133a2.8 2.8 0 01-2.8 2.8H24.333a2.8 2.8 0 01-2.8-2.8v-2.8H31.8a2.8 2.8 0 002.8-2.8V11.267a.933.933 0 00-.273-.66l-3.734-3.734a.933.933 0 00-.66-.273H29V3.8A2.8 2.8 0 0026.2 1H3.8A2.8 2.8 0 001 3.8v37.333a2.8 2.8 0 002.8 2.8h2.8v2.8a2.8 2.8 0 002.8 2.8h10.267v2.8A4.672 4.672 0 0024.333 57H34.6a4.672 4.672 0 004.667-4.667V26.2a2.8 2.8 0 012.8-2.8h4.666a2.8 2.8 0 012.8 2.8v12.208a6.533 6.533 0 00-5.6 6.459V54.2a2.8 2.8 0 002.8 2.8H54.2a2.8 2.8 0 002.8-2.8v-9.333a6.533 6.533 0 00-5.6-6.459zM32.347 11.267h-2.414V8.853l2.414 2.414zM3.8 42.067a.934.934 0 01-.933-.934V3.8a.933.933 0 01.933-.933h22.4a.934.934 0 01.933.933v2.8H9.4a2.8 2.8 0 00-2.8 2.8v32.667H3.8zm4.667 4.666V9.4a.933.933 0 01.933-.933h18.667V12.2a.934.934 0 00.933.933h3.733v33.6a.933.933 0 01-.933.934H9.4a.934.934 0 01-.933-.934zM55.133 54.2a.934.934 0 01-.933.933h-7.467a.933.933 0 01-.933-.933v-9.333a4.667 4.667 0 019.333 0V54.2z" fill="url(#paint0_linear_41:743)"/><path d="M51.4 38.408V26.2a4.672 4.672 0 00-4.667-4.667h-4.666A4.672 4.672 0 0037.4 26.2v26.133a2.8 2.8 0 01-2.8 2.8H24.333a2.8 2.8 0 01-2.8-2.8v-2.8H31.8a2.8 2.8 0 002.8-2.8V11.267a.933.933 0 00-.273-.66l-3.734-3.734a.933.933 0 00-.66-.273H29V3.8A2.8 2.8 0 0026.2 1H3.8A2.8 2.8 0 001 3.8v37.333a2.8 2.8 0 002.8 2.8h2.8v2.8a2.8 2.8 0 002.8 2.8h10.267v2.8A4.672 4.672 0 0024.333 57H34.6a4.672 4.672 0 004.667-4.667V26.2a2.8 2.8 0 012.8-2.8h4.666a2.8 2.8 0 012.8 2.8v12.208a6.533 6.533 0 00-5.6 6.459V54.2a2.8 2.8 0 002.8 2.8H54.2a2.8 2.8 0 002.8-2.8v-9.333a6.533 6.533 0 00-5.6-6.459zM32.347 11.267h-2.414V8.853l2.414 2.414zM3.8 42.067a.934.934 0 01-.933-.934V3.8a.933.933 0 01.933-.933h22.4a.934.934 0 01.933.933v2.8H9.4a2.8 2.8 0 00-2.8 2.8v32.667H3.8zm4.667 4.666V9.4a.933.933 0 01.933-.933h18.667V12.2a.934.934 0 00.933.933h3.733v33.6a.933.933 0 01-.933.934H9.4a.934.934 0 01-.933-.934zM55.133 54.2a.934.934 0 01-.933.933h-7.467a.933.933 0 01-.933-.933v-9.333a4.667 4.667 0 019.333 0V54.2z" stroke="url(#paint1_linear_41:743)" stroke-width=".4" mask="url(#a)"/><path d="M51.5 42.067v-.1h-2.067v7.666H51.5v-7.566z" fill="url(#paint2_linear_41:743)" stroke="url(#paint3_linear_41:743)" stroke-width=".2"/><path d="M28.067 15.833H13.133a2.9 2.9 0 00-2.9 2.9V37.4a2.9 2.9 0 002.9 2.9h14.934a2.9 2.9 0 002.9-2.9V18.733a2.9 2.9 0 00-2.9-2.9zM28.9 37.4a.833.833 0 01-.833.833H13.133a.833.833 0 01-.833-.833V18.733a.834.834 0 01.833-.833h14.934a.833.833 0 01.833.833V37.4z" fill="url(#paint4_linear_41:743)" stroke="url(#paint5_linear_41:743)" stroke-width=".2"/><path d="M27.233 19.666v-.1H13.966v2.067h13.267v-1.967z" fill="url(#paint6_linear_41:743)" stroke="url(#paint7_linear_41:743)" stroke-width=".2"/><path d="M27.233 23.4v-.1H13.966v2.067h13.267V23.4z" fill="url(#paint8_linear_41:743)" stroke="url(#paint9_linear_41:743)" stroke-width=".2"/><path d="M27.233 27.133v-.1H13.966V29.1h13.267v-1.967z" fill="url(#paint10_linear_41:743)" stroke="url(#paint11_linear_41:743)" stroke-width=".2"/><path d="M27.233 30.867v-.1H13.966v2.066h13.267v-1.966z" fill="url(#paint12_linear_41:743)" stroke="url(#paint13_linear_41:743)" stroke-width=".2"/><path d="M27.233 34.6v-.1H13.966v2.067h13.267V34.6z" fill="url(#paint14_linear_41:743)" stroke="url(#paint15_linear_41:743)" stroke-width=".2"/><defs><linearGradient id="paint0_linear_41:743" x1="1" y1="1" x2="65.432" y2="13.473" gradientUnits="userSpaceOnUse"><stop stop-color="#026FC5"/><stop offset="1" stop-color="#02AEC5"/></linearGradient><linearGradient id="paint1_linear_41:743" x1="1" y1="1" x2="65.432" y2="13.473" gradientUnits="userSpaceOnUse"><stop stop-color="#026FC5"/><stop offset="1" stop-color="#02AEC5"/></linearGradient><linearGradient id="paint2_linear_41:743" x1="49.533" y1="42.067" x2="51.756" y2="42.174" gradientUnits="userSpaceOnUse"><stop stop-color="#026FC5"/><stop offset="1" stop-color="#02AEC5"/></linearGradient><linearGradient id="paint3_linear_41:743" x1="49.533" y1="42.067" x2="51.756" y2="42.174" gradientUnits="userSpaceOnUse"><stop stop-color="#026FC5"/><stop offset="1" stop-color="#02AEC5"/></linearGradient><linearGradient id="paint4_linear_41:743" x1="10.334" y1="15.933" x2="34.204" y2="19.843" gradientUnits="userSpaceOnUse"><stop stop-color="#026FC5"/><stop offset="1" stop-color="#02AEC5"/></linearGradient><linearGradient id="paint5_linear_41:743" x1="10.334" y1="15.933" x2="34.204" y2="19.843" gradientUnits="userSpaceOnUse"><stop stop-color="#026FC5"/><stop offset="1" stop-color="#02AEC5"/></linearGradient><linearGradient id="paint6_linear_41:743" x1="14.066" y1="19.666" x2="19.566" y2="27.119" gradientUnits="userSpaceOnUse"><stop stop-color="#026FC5"/><stop offset="1" stop-color="#02AEC5"/></linearGradient><linearGradient id="paint7_linear_41:743" x1="14.066" y1="19.666" x2="19.566" y2="27.119" gradientUnits="userSpaceOnUse"><stop stop-color="#026FC5"/><stop offset="1" stop-color="#02AEC5"/></linearGradient><linearGradient id="paint8_linear_41:743" x1="14.066" y1="23.4" x2="19.566" y2="30.852" gradientUnits="userSpaceOnUse"><stop stop-color="#026FC5"/><stop offset="1" stop-color="#02AEC5"/></linearGradient><linearGradient id="paint9_linear_41:743" x1="14.066" y1="23.4" x2="19.566" y2="30.852" gradientUnits="userSpaceOnUse"><stop stop-color="#026FC5"/><stop offset="1" stop-color="#02AEC5"/></linearGradient><linearGradient id="paint10_linear_41:743" x1="14.066" y1="27.133" x2="19.566" y2="34.586" gradientUnits="userSpaceOnUse"><stop stop-color="#026FC5"/><stop offset="1" stop-color="#02AEC5"/></linearGradient><linearGradient id="paint11_linear_41:743" x1="14.066" y1="27.133" x2="19.566" y2="34.586" gradientUnits="userSpaceOnUse"><stop stop-color="#026FC5"/><stop offset="1" stop-color="#02AEC5"/></linearGradient><linearGradient id="paint12_linear_41:743" x1="14.066" y1="30.867" x2="19.566" y2="38.319" gradientUnits="userSpaceOnUse"><stop stop-color="#026FC5"/><stop offset="1" stop-color="#02AEC5"/></linearGradient><linearGradient id="paint13_linear_41:743" x1="14.066" y1="30.867" x2="19.566" y2="38.319" gradientUnits="userSpaceOnUse"><stop stop-color="#026FC5"/><stop offset="1" stop-color="#02AEC5"/></linearGradient><linearGradient id="paint14_linear_41:743" x1="14.066" y1="34.6" x2="19.566" y2="42.052" gradientUnits="userSpaceOnUse"><stop stop-color="#026FC5"/><stop offset="1" stop-color="#02AEC5"/></linearGradient><linearGradient id="paint15_linear_41:743" x1="14.066" y1="34.6" x2="19.566" y2="42.052" gradientUnits="userSpaceOnUse"><stop stop-color="#026FC5"/><stop offset="1" stop-color="#02AEC5"/></linearGradient></defs></svg>