<svg width="73" height="55" fill="none" xmlns="http://www.w3.org/2000/svg"><path d="M36.23 14.8a1.543 1.543 0 00-1.543 1.542v18.161a1.543 1.543 0 003.085 0V16.342a1.543 1.543 0 00-1.543-1.543z" fill="url(#paint0_linear_41:724)"/><path d="M17.235 25.268a1.542 1.542 0 00-2.931.946l2.859 8.824a1.543 1.543 0 002.93-.946l-2.858-8.824z" fill="url(#paint1_linear_41:724)"/><path d="M52.355 34.102a1.542 1.542 0 002.93.947l2.86-8.824a1.543 1.543 0 00-2.932-.946l-2.858 8.823z" fill="url(#paint2_linear_41:724)"/><path d="M71.308 6.438a2.56 2.56 0 00-2.9 0L54.01 16.527 38.04.74a2.581 2.581 0 00-3.62 0L18.437 16.558 4.04 6.469A2.57 2.57 0 00.06 9.133l7.2 32.816a1.554 1.554 0 000 .175l.308 8.155a4.607 4.607 0 004.627 4.453h48.058a4.618 4.618 0 004.597-4.453l.298-8.093c.003-.055.003-.11 0-.165l7.199-32.909a2.56 2.56 0 00-1.039-2.674zm-9.543 43.728a1.532 1.532 0 01-1.543 1.48H12.196a1.532 1.532 0 01-1.543-1.48l-.257-6.767h51.646l-.277 6.767zm.617-9.852H10.046L3.351 9.76l13.678 9.574a2.57 2.57 0 003.28-.277L36.23 3.26l15.91 15.796a2.571 2.571 0 003.29.277L69.098 9.76l-6.715 30.554z" fill="url(#paint3_linear_41:724)"/><defs><linearGradient id="paint0_linear_41:724" x1="34.687" y1="14.799" x2="38.366" y2="14.902" gradientUnits="userSpaceOnUse"><stop stop-color="#026FC5"/><stop offset="1" stop-color="#02AEC5"/></linearGradient><linearGradient id="paint1_linear_41:724" x1="14.254" y1="24.285" x2="21.218" y2="24.961" gradientUnits="userSpaceOnUse"><stop stop-color="#026FC5"/><stop offset="1" stop-color="#02AEC5"/></linearGradient><linearGradient id="paint2_linear_41:724" x1="52.305" y1="24.295" x2="59.269" y2="24.972" gradientUnits="userSpaceOnUse"><stop stop-color="#026FC5"/><stop offset="1" stop-color="#02AEC5"/></linearGradient><linearGradient id="paint3_linear_41:724" x1="0" y1="0" x2="81.116" y2="20.774" gradientUnits="userSpaceOnUse"><stop stop-color="#026FC5"/><stop offset="1" stop-color="#02AEC5"/></linearGradient></defs></svg>