<svg width="42" height="60" fill="none" xmlns="http://www.w3.org/2000/svg"><path d="M16.424 37.477v4.775H8.007c-.745 0-1.328.594-1.472 1.317h0l-.001.004-2.335 14.562s0 0 0 0c-.148.884.584 1.765 1.472 1.765h31.736c.887 0 1.62-.881 1.472-1.765v-.001l-2.61-14.563v-.002c-.145-.723-.728-1.317-1.473-1.317h-8.555v-4.775c3.559-1.255 6.295-4.136 7.539-7.697 3.586-2.155 5.544-6.398 6.608-10.12 1.067-3.736 1.24-6.974 1.24-7.12a5.025 5.025 0 00-5.046-5.046c-.777 0-1.441.121-2.098.478V2.099c0-.307-.153-.606-.373-.826-.22-.22-.519-.373-.826-.373H9.243c-.307 0-.606.153-.826.373-.22.22-.373.519-.373.826v5.735c-.657-.356-1.321-.477-2.098-.477C3.14 7.357.9 9.602.9 12.54c0 .147.173 3.35 1.24 7.069 1.064 3.705 3.023 7.947 6.608 10.17a12.668 12.668 0 007.676 7.698zm7.556.58v4.195h-5.57v-4.038c.642.117 1.167.117 1.684.117h.002v0h.006l2.195-.138c.28 0 .593-.035.898-.068h.003c.273-.031.54-.06.782-.068zm10.504-12.465V10.384c.534-.52 1.32-.904 2.098-.904 1.594 0 2.923 1.33 2.923 2.923v.011l-.002.027-.004.1a31.471 31.471 0 01-.135 1.625 35.388 35.388 0 01-.681 4.053c-.703 3.047-1.99 6.527-4.324 8.523.011-.112.03-.227.048-.35l.007-.047a4.8 4.8 0 00.07-.753zM2.886 12.402c0-1.727 1.326-2.922 2.922-2.922.793 0 1.573.26 2.099.897v15.216c0 .338 0 .682.076 1.103-2.17-1.94-3.442-5.354-4.172-8.375-.754-3.119-.925-5.79-.925-5.918zm7.281 13.19V3.023h22.331v22.569c0 5.852-4.763 10.616-10.616 10.616h-1.098c-5.992-.137-10.617-4.766-10.617-10.616zm15.974 18.784H34.3l2.166 13.263H6.2l2.165-13.263H26.14z" fill="url(#paint0_linear_41:730)" stroke="url(#paint1_linear_41:730)" stroke-width=".2"/><path d="M8.044 6.22a1.04 1.04 0 001.062 1.062h23.63c.604 0 1.061-.457 1.061-1.061 0-.605-.457-1.062-1.061-1.062H9.106c-.236 0-.5.116-.703.3a1.037 1.037 0 00-.359.762z" fill="url(#paint2_linear_41:730)" stroke="url(#paint3_linear_41:730)" stroke-width=".2"/><path d="M30.537 51.87H19.135c-.605 0-1.062.456-1.062 1.061s.457 1.062 1.061 1.062h11.403c.605 0 1.062-.457 1.062-1.062s-.457-1.061-1.062-1.061z" fill="url(#paint4_linear_41:730)" stroke="url(#paint5_linear_41:730)" stroke-width=".2"/><path d="M12.265 53.993h2.061c.605 0 1.062-.457 1.062-1.062s-.457-1.061-1.062-1.061h-2.06c-.605 0-1.062.456-1.062 1.061s.457 1.062 1.061 1.062z" fill="url(#paint6_linear_41:730)" stroke="url(#paint7_linear_41:730)" stroke-width=".2"/><path d="M12.265 49.871h16.486a1.04 1.04 0 001.062-1.061 1.04 1.04 0 00-1.062-1.062H12.265c-.604 0-1.061.457-1.061 1.062 0 .604.457 1.061 1.061 1.061z" fill="url(#paint8_linear_41:730)" stroke="url(#paint9_linear_41:730)" stroke-width=".2"/><path d="M26.388 27.648a.41.41 0 00-.042-.023.961.961 0 00.195-.292c.075-.167.112-.353.112-.505v-.008l-.001-.008-.816-4.895 3.535-3.536c.149-.148.26-.334.317-.523a.768.768 0 00-.013-.532.766.766 0 00-.274-.55.828.828 0 00-.505-.214l-4.887-.679-2.173-4.482c-.157-.388-.543-.575-.916-.575-.372 0-.758.187-.916.575l-2.173 4.482-4.886.68a.73.73 0 00-.453.195c-.131.112-.242.26-.316.409l-.01.02v.038c0 .402 0 .715.303 1.019l3.536 3.535-.816 4.896-.001.008v.008c0 .152.037.337.111.504a.829.829 0 00.341.402c.312.3.766.295 1.066.145h.001l4.488-2.312 4.475 2.305c.163.155.331.155.466.155h.006c.034 0 .079 0 .12-.002a.641.641 0 00.063-.006.227.227 0 00.067-.02.124.124 0 00.046-.038.11.11 0 00.017-.09.124.124 0 00-.032-.058.191.191 0 00-.035-.028zm-8.117-6.021l.002-.01v-.014c0-.275 0-.586-.304-.89l-2.472-2.472 3.24-.519.016-.002.014-.007.013-.006c.265-.133.566-.283.718-.588L21.058 14l1.559 3.118c.074.148.185.296.316.409.128.11.285.193.452.196l3.506.519-2.47 2.47c-.303.304-.303.615-.303.89v.015l.001.009.649 3.373-3.116-1.558a.976.976 0 00-.914 0L17.622 25l.649-3.373z" fill="url(#paint10_linear_41:730)" stroke="url(#paint11_linear_41:730)" stroke-width=".2"/><defs><linearGradient id="paint0_linear_41:730" x1="1" y1="1" x2="48.532" y2="7.342" gradientUnits="userSpaceOnUse"><stop stop-color="#026FC5"/><stop offset="1" stop-color="#02AEC5"/></linearGradient><linearGradient id="paint1_linear_41:730" x1="1" y1="1" x2="48.532" y2="7.342" gradientUnits="userSpaceOnUse"><stop stop-color="#026FC5"/><stop offset="1" stop-color="#02AEC5"/></linearGradient><linearGradient id="paint2_linear_41:730" x1="8.144" y1="5.259" x2="12.15" y2="15.562" gradientUnits="userSpaceOnUse"><stop stop-color="#026FC5"/><stop offset="1" stop-color="#02AEC5"/></linearGradient><linearGradient id="paint3_linear_41:730" x1="8.144" y1="5.259" x2="12.15" y2="15.562" gradientUnits="userSpaceOnUse"><stop stop-color="#026FC5"/><stop offset="1" stop-color="#02AEC5"/></linearGradient><linearGradient id="paint4_linear_41:730" x1="18.173" y1="51.969" x2="23.856" y2="59.592" gradientUnits="userSpaceOnUse"><stop stop-color="#026FC5"/><stop offset="1" stop-color="#02AEC5"/></linearGradient><linearGradient id="paint5_linear_41:730" x1="18.173" y1="51.969" x2="23.856" y2="59.592" gradientUnits="userSpaceOnUse"><stop stop-color="#026FC5"/><stop offset="1" stop-color="#02AEC5"/></linearGradient><linearGradient id="paint6_linear_41:730" x1="11.304" y1="51.969" x2="15.401" y2="53.612" gradientUnits="userSpaceOnUse"><stop stop-color="#026FC5"/><stop offset="1" stop-color="#02AEC5"/></linearGradient><linearGradient id="paint7_linear_41:730" x1="11.304" y1="51.969" x2="15.401" y2="53.612" gradientUnits="userSpaceOnUse"><stop stop-color="#026FC5"/><stop offset="1" stop-color="#02AEC5"/></linearGradient><linearGradient id="paint8_linear_41:730" x1="11.304" y1="47.848" x2="16.261" y2="57.033" gradientUnits="userSpaceOnUse"><stop stop-color="#026FC5"/><stop offset="1" stop-color="#02AEC5"/></linearGradient><linearGradient id="paint9_linear_41:730" x1="11.304" y1="47.848" x2="16.261" y2="57.033" gradientUnits="userSpaceOnUse"><stop stop-color="#026FC5"/><stop offset="1" stop-color="#02AEC5"/></linearGradient><linearGradient id="paint10_linear_41:730" x1="12.265" y1="10.926" x2="32.201" y2="14.9" gradientUnits="userSpaceOnUse"><stop stop-color="#026FC5"/><stop offset="1" stop-color="#02AEC5"/></linearGradient><linearGradient id="paint11_linear_41:730" x1="12.265" y1="10.926" x2="32.201" y2="14.9" gradientUnits="userSpaceOnUse"><stop stop-color="#026FC5"/><stop offset="1" stop-color="#02AEC5"/></linearGradient></defs></svg>