<svg width="55" height="55" fill="none" xmlns="http://www.w3.org/2000/svg"><path d="M53.764 29.707l1.196 5.778a1.953 1.953 0 01-1.51 2.304l-6.093 1.265a1.4 1.4 0 01-1.055-.202l-1.964-1.276a1.405 1.405 0 01-.561-.877l-.623-2.883-1.683.343a2.634 2.634 0 01-3.12-2.046l-.348-1.686-2.884.561a1.4 1.4 0 01-1.038-.207l-1.913-1.265a14.08 14.08 0 01-3.137 1.377 9.924 9.924 0 01-2.048.365 12.89 12.89 0 01-.516 1.046l9.539 13.59a2.195 2.195 0 01.37 1.653l-1.016 5.829A1.951 1.951 0 0133.458 55c-.113 0-.225-.01-.337-.028l-6.127-1.096a1.403 1.403 0 01-.909-.562l-1.34-1.911a1.407 1.407 0 01-.236-1.04l.482-2.912-1.683-.292a2.645 2.645 0 01-2.143-3.052l.291-1.686-2.884-.562a1.403 1.403 0 01-.892-.562l-1.313-1.883a14.1 14.1 0 01-9.462-1.83A14.137 14.137 0 01.819 30.1a13.765 13.765 0 01.875-11.292 1.41 1.41 0 112.48 1.344 10.946 10.946 0 00-.712 8.993 11.321 11.321 0 005.2 6.228 11.29 11.29 0 008.025 1.14 1.402 1.402 0 011.464.563l1.498 2.186 3.316.624a1.762 1.762 0 011.431 2.04l-.437 2.53 2.536.427a1.762 1.762 0 011.436 2.029l-.56 3.372.695.939 4.713.82.82-4.72-9.943-14.131a1.407 1.407 0 01-.034-1.568 11.29 11.29 0 00-1.183-13.752 11.24 11.24 0 00-13.586-2.301l2.183 2.777a4.296 4.296 0 014.869 1.759 4.315 4.315 0 01-1.806 6.279 4.296 4.296 0 01-2.54.325 4.294 4.294 0 01-3.272-2.592 4.312 4.312 0 01.466-4.153l-4.124-5.255A9.173 9.173 0 015.768 2.37a9.137 9.137 0 0112.372.088l1.863 1.787A14.039 14.039 0 0133.7 6.348a14.083 14.083 0 014.313 5.732 14.117 14.117 0 01.933 7.116l13.865 9.111a2.19 2.19 0 01.953 1.4zm-42.7-6.368a1.498 1.498 0 002.685-1.196 1.501 1.501 0 00-1.498-1.17 1.496 1.496 0 00-1.439 1.242 1.499 1.499 0 00.253 1.124zm5.14-18.846A6.334 6.334 0 007.59 4.41a6.355 6.355 0 00-.744 8.598l.247.315a13.926 13.926 0 015.095-1.77 14.31 14.31 0 015.162-5.964l-1.145-1.096zm34.867 26.029l-14.42-9.476a1.405 1.405 0 01-.612-1.456c.51-2.593.095-5.283-1.173-7.6a11.267 11.267 0 00-5.764-5.082 11.243 11.243 0 00-7.676-.199 11.264 11.264 0 00-6.018 4.776 14.052 14.052 0 0110.354 6.073 14.104 14.104 0 012.186 10.727c.09 0 .19-.04.28-.067a11.265 11.265 0 003.16-1.518 1.4 1.4 0 011.565 0l2.2 1.433 3.31-.646a1.76 1.76 0 012.082 1.371l.522 2.535 2.508-.562a1.76 1.76 0 012.081 1.36l.719 3.333.982.647 4.68-.956-.966-4.693z" fill="url(#paint0_linear_41:694)"/><defs><linearGradient id="paint0_linear_41:694" x1="55" y1="0" x2="-8.282" y2="12.25" gradientUnits="userSpaceOnUse"><stop stop-color="#026FC5"/><stop offset="1" stop-color="#02AEC5"/></linearGradient></defs></svg>