<svg width="68" height="60" fill="none" xmlns="http://www.w3.org/2000/svg"><path d="M17.337 29.1l14.513-4.443v7.594l-14.635 4.48L2.68 26.073a1.15 1.15 0 10-1.36 1.854l15 11c.293.215.67.279 1.017.173l14.513-4.443v7.594l-14.635 4.48L2.68 36.073a1.15 1.15 0 10-1.36 1.854l15 11c.293.215.67.279 1.017.173l14.513-4.443v7.594l-14.635 4.48L2.68 46.073a1.15 1.15 0 10-1.36 1.854l15 11c.293.215.67.279 1.017.173l49-15a1.15 1.15 0 10-.673-2.2L54.15 45.425V37.83l12.187-3.73a1.15 1.15 0 10-.673-2.2L54.15 35.425V27.83l12.187-3.73a1.15 1.15 0 10-.673-2.2L54.15 25.425V17.83l12.187-3.73a1.15 1.15 0 00.343-2.027l-15-11A1.15 1.15 0 0050.664.9l-49 15a1.15 1.15 0 00-.344 2.027l15 11c.293.215.67.279 1.017.173zm13.658-6.587l-13.78 4.218L4.53 17.428l14.43-4.417 12.036 9.502zm22.563-6.907L41.522 6.104l9.263-2.836 12.686 9.303-9.913 3.035zm-19.889 6.089l-12.035-9.502 17.213-5.27 12.036 9.502-17.214 5.27zm.481 29.852V23.953l17.7-5.419V46.13l-17.7 5.418z" fill="url(#paint0_linear_41:726)" stroke="url(#paint1_linear_41:726)" stroke-width=".3"/><defs><linearGradient id="paint0_linear_41:726" x1="1" y1="1" x2="76.138" y2="17.552" gradientUnits="userSpaceOnUse"><stop stop-color="#026FC5"/><stop offset="1" stop-color="#02AEC5"/></linearGradient><linearGradient id="paint1_linear_41:726" x1="1" y1="1" x2="76.138" y2="17.552" gradientUnits="userSpaceOnUse"><stop stop-color="#026FC5"/><stop offset="1" stop-color="#02AEC5"/></linearGradient></defs></svg>