<svg width="50" height="50" fill="none" xmlns="http://www.w3.org/2000/svg"><path d="M0 3a3 3 0 013-3h44a3 3 0 013 3v44a3 3 0 01-3 3H3a3 3 0 01-3-3V3z" fill="#F1F1F1"/><path d="M0 3a3 3 0 013-3h44a3 3 0 013 3v44a3 3 0 01-3 3H3a3 3 0 01-3-3V3z" fill="#1A2F48"/><path fill-rule="evenodd" clip-rule="evenodd" d="M29.464 35.417h-8.928a5.996 5.996 0 01-4.21-1.72 5.827 5.827 0 01-1.742-4.149v-9.096c0-1.557.627-3.05 1.743-4.15a5.996 5.996 0 014.209-1.719h8.928c1.58 0 3.093.619 4.21 1.72a5.827 5.827 0 011.743 4.149v9.096c0 .77-.154 1.534-.453 2.246a5.863 5.863 0 01-1.29 1.904 5.957 5.957 0 01-1.932 1.272 6.025 6.025 0 01-2.278.447zm4.018-15.405c0-.973-.392-1.906-1.09-2.594a3.747 3.747 0 00-2.63-1.074H20.09c-.986 0-1.932.386-2.63 1.074a3.642 3.642 0 00-1.09 2.594v9.536c0 .973.392 1.906 1.09 2.594a3.747 3.747 0 002.63 1.074h9.673c.987 0 1.933-.386 2.63-1.074a3.642 3.642 0 001.09-2.594v-9.536zm-2.976.587c-.265 0-.524-.078-.744-.223a1.325 1.325 0 01-.493-.593 1.303 1.303 0 01.29-1.439 1.357 1.357 0 011.46-.286c.244.1.453.27.6.487a1.307 1.307 0 01-.166 1.667 1.349 1.349 0 01-.947.387zm-5.58 9.683a5.487 5.487 0 01-3.018-.903 5.372 5.372 0 01-2-2.403 5.285 5.285 0 01-.31-3.094 5.331 5.331 0 011.487-2.742 5.455 5.455 0 012.781-1.466 5.504 5.504 0 013.138.305 5.416 5.416 0 012.438 1.973 5.296 5.296 0 01-.675 6.761 5.47 5.47 0 01-3.841 1.569zm0-8.803c-.692 0-1.368.202-1.943.58a3.46 3.46 0 00-1.288 1.548 3.403 3.403 0 00-.2 1.992c.136.67.469 1.283.958 1.766.489.482 1.112.81 1.79.943a3.544 3.544 0 002.021-.196 3.487 3.487 0 001.57-1.27 3.413 3.413 0 00-.436-4.353 3.522 3.522 0 00-2.472-1.01z" fill="#fff"/></svg>