<svg width="280" height="69" fill="none" xmlns="http://www.w3.org/2000/svg"><path d="M81.82 32.989V7.802h2.27V30.72h22.916v2.27H81.82zm27.456 0V7.802h25.187v2.343h-22.917V30.72h22.917v2.27h-25.187zm27.457 0v-2.27h22.843v-9.152h-22.843V7.802h25.186v2.343h-22.917v9.152h22.917V32.99h-25.186zm27.456-11.422v-2.27h25.187v2.27h-25.187zm50.3 9.152V10.145h-20.574V30.72h20.574zm-22.844 13.692V7.802h25.187V32.99h-22.917v11.42h-2.27zm27.457-11.422V7.802h25.186v2.343h-22.917V32.99h-2.269zm50.3-2.27V10.145h-20.574V30.72h20.574zm-22.844 2.27V7.802h25.187V32.99h-25.187zM73.564 59.182h1.31c1.043 0 1.958-.375 1.958-1.446 0-.695-.504-1.153-1.236-1.244v-.01c.705-.146 1.117-.576 1.117-1.19 0-.924-.723-1.336-1.876-1.336h-1.273v5.226zm.623-4.704h.576c.806 0 1.31.238 1.31.87 0 .723-.623.887-1.374.887h-.512v-1.757zm0 2.26h.494c1.025 0 1.51.303 1.51.97 0 .669-.485.962-1.419.962h-.585v-1.931zm6.406 2.444h.696l2.04-3.038h.02c-.038.293-.038.778-.038 1.125v1.913h.614v-3.807h-.696l-2.04 3.038h-.02c.038-.292.047-.777.047-1.134v-1.904h-.623v3.807zm6.672 1.108h.568v-1.108h3.148v1.108h.558v-1.602H91v-3.313h-2.764v1.034c0 1.227-.137 1.648-.54 2.279h-.43v1.602zm1.08-1.602c.403-.595.467-1.29.467-2.142v-.686h1.574v2.828h-2.04zm9.692-1.281c0-.083.01-.192.01-.257 0-1.253-.605-1.857-1.584-1.857-1.062 0-1.775.768-1.775 1.958 0 1.254.704 2.014 1.949 2.014.43 0 .796-.074 1.135-.23l-.028-.557c-.33.182-.659.274-1.07.274-.815 0-1.355-.503-1.364-1.345h2.727zm-2.718-.467c.064-.76.522-1.18 1.126-1.18.604 0 1.007.384 1.007 1.18h-2.133zm8.017-1.647c-1.144 0-1.931.814-1.931 2.004 0 1.162.796 1.968 1.895 1.968 1.116 0 1.894-.806 1.894-1.968 0-1.18-.778-2.004-1.858-2.004zm-.045.494c.75 0 1.263.604 1.263 1.5 0 .889-.513 1.474-1.254 1.474-.742 0-1.245-.576-1.245-1.464 0-.897.503-1.51 1.236-1.51zm5.564 3.395h.613v-1.757h2.014v1.757h.613v-3.807h-.613v1.565h-2.014v-1.565h-.613v3.807zm7.322-3.02a1.94 1.94 0 011.107-.375c.696 0 .989.393.989 1.034v.073a5.175 5.175 0 00-.531-.027c-1.291 0-2.014.439-2.014 1.235 0 .687.522 1.135 1.309 1.135.604 0 1.043-.284 1.281-.723h.009c-.009.11-.009.256-.009.357 0 .11 0 .247.009.311h.559c-.037-.265-.046-.723-.046-1.135 0-.183.009-.778.009-1.263 0-.87-.403-1.491-1.464-1.491-.43 0-.888.1-1.254.32l.046.549zm2.105 1.162c0 .989-.385 1.437-1.117 1.437-.476 0-.787-.256-.787-.659 0-.549.503-.787 1.483-.787.183 0 .329 0 .421.01zm6.122 1.94c1.108 0 1.84-.787 1.84-1.958 0-1.144-.686-1.95-1.785-1.95-.814 0-1.29.513-1.427.87h-.019c.101-1.473.522-1.84 1.849-1.959.339-.027.851-.045 1.153-.128l.037-.576c-.339.091-.806.119-1.199.146-.595.055-1.144.128-1.574.513-.65.585-.751 1.638-.751 2.81 0 1.262.559 2.233 1.876 2.233zm.01-.503c-.705 0-1.236-.53-1.236-1.446 0-.906.485-1.482 1.254-1.482.732 0 1.171.54 1.171 1.473 0 .888-.466 1.455-1.189 1.455zm5.326.476c1.098 0 1.199-1.272 1.208-3.377h1.492v3.322h.604v-3.807h-2.663c0 2.498-.156 3.34-.76 3.34-.1 0-.238-.009-.311-.036l-.027.503c.1.028.311.055.457.055zm10.379.037c1.043 0 1.775-.815 1.775-1.977 0-1.18-.723-2.014-1.757-2.014-.961 0-1.657.669-1.785 1.657h-.768v-1.565h-.604v3.807h.604v-1.757h.75c.055 1.09.778 1.849 1.785 1.849zm0-.513c-.705 0-1.153-.576-1.153-1.464 0-.897.448-1.51 1.134-1.51.714 0 1.163.595 1.163 1.5 0 .889-.449 1.474-1.144 1.474zm4.841 1.529h.558v-1.108h3.158v1.108h.549v-1.602h-.54v-3.313h-2.764v1.034c0 1.227-.128 1.648-.54 2.279h-.421v1.602zm1.08-1.602c.403-.595.458-1.29.458-2.142v-.686h1.574v2.828h-2.032zm9.683-1.281c.009-.083.018-.192.018-.257 0-1.253-.613-1.857-1.592-1.857-1.053 0-1.776.768-1.776 1.958 0 1.254.705 2.014 1.959 2.014.43 0 .796-.074 1.126-.23l-.019-.557a2.152 2.152 0 01-1.08.274c-.814 0-1.345-.503-1.363-1.345h2.727zm-2.709-.467c.064-.76.513-1.18 1.126-1.18.604 0 .997.384.997 1.18h-2.123zm6.37 2.242h.613v-1.757h2.014v1.757h.613v-3.807h-.613v1.565h-2.014v-1.565h-.613v3.807zm7.184 0h.687l2.041-3.038h.027c-.046.293-.046.778-.046 1.125v1.913h.614v-3.807h-.696l-2.041 3.038h-.018c.036-.292.046-.777.046-1.134v-1.904h-.614v3.807zm10.324-1.775c0-.083.009-.192.009-.257 0-1.253-.604-1.857-1.583-1.857-1.062 0-1.776.768-1.776 1.958 0 1.254.705 2.014 1.95 2.014.43 0 .796-.074 1.135-.23l-.028-.557a2.095 2.095 0 01-1.071.274c-.814 0-1.354-.503-1.363-1.345h2.727zm-2.718-.467c.064-.76.521-1.18 1.125-1.18s1.007.384 1.007 1.18h-2.132zm6.965 1.5h-.733v.742h.733v-.741zm8.227.797c1.309 0 1.437-1.602 1.446-4.732h1.913v4.677h.65v-5.226h-3.194c0 3.432-.137 4.714-.952 4.714a1.37 1.37 0 01-.476-.083l-.037.55c.165.063.44.1.65.1zm9.647-3.944c-1.144 0-1.922.814-1.922 2.004 0 1.162.787 1.968 1.885 1.968 1.117 0 1.895-.806 1.895-1.968 0-1.18-.778-2.004-1.858-2.004zm-.046.494c.75 0 1.263.604 1.263 1.5 0 .889-.513 1.474-1.254 1.474s-1.245-.576-1.245-1.464c0-.897.504-1.51 1.236-1.51zm7.999 3.395h.824l-2.041-2.032 1.848-1.775h-.805l-.97 1.007c-.229.247-.504.549-.668.741h-.019v-1.748h-.613v3.807h.613V57.27h.019c.183.238.43.513.659.742l1.153 1.171zm4.301-3.02c.33-.238.732-.375 1.117-.375.686 0 .988.393.988 1.034v.073a5.279 5.279 0 00-.531-.027c-1.299 0-2.013.439-2.013 1.235 0 .687.513 1.135 1.309 1.135.595 0 1.034-.284 1.272-.723h.009c0 .11-.009.256-.009.357 0 .11.009.247.009.311h.558a13.002 13.002 0 01-.045-1.135c0-.183.018-.778.018-1.263 0-.87-.412-1.491-1.474-1.491-.421 0-.887.1-1.244.32l.036.549zm2.105 1.162c0 .989-.384 1.437-1.116 1.437-.476 0-.787-.256-.787-.659 0-.549.512-.787 1.491-.787.174 0 .321 0 .412.01zm4.329 1.913c1.108 0 1.208-1.272 1.217-3.377h1.492v3.322h.604v-3.807h-2.663c0 2.498-.165 3.34-.769 3.34a1.03 1.03 0 01-.302-.036l-.036.503c.109.028.32.055.457.055zm7.249-.055h1.592c.888 0 1.465-.338 1.465-1.199 0-.796-.604-1.116-1.401-1.116h-1.043v-1.492h-.613v3.807zm.613-.485v-1.345h.943c.594 0 .869.201.869.64 0 .458-.265.705-.833.705h-.979zm5.949.485h.613v-1.757h2.013v1.757h.614v-3.807h-.614v1.565h-2.013v-1.565h-.613v3.807zm10.781 0h.595v-3.807h-.595v3.807zm-3.606 0h1.519c.888 0 1.465-.338 1.465-1.199 0-.796-.614-1.116-1.401-1.116h-.97v-1.492h-.613v3.807zm.613-.485v-1.345h.87c.595 0 .869.201.869.64 0 .458-.265.705-.833.705h-.906zm10.589-1.29c.009-.083.019-.192.019-.257 0-1.253-.614-1.857-1.593-1.857-1.052 0-1.775.768-1.775 1.958 0 1.254.704 2.014 1.958 2.014a2.63 2.63 0 001.126-.23l-.018-.557a2.158 2.158 0 01-1.08.274c-.815 0-1.346-.503-1.364-1.345h2.727zm-2.709-.467c.055-.76.513-1.18 1.117-1.18.613 0 1.007.384 1.007 1.18h-2.124zm13.253-1.483c-.257-.1-.54-.137-.842-.137-1.172 0-1.941.824-1.941 1.959 0 1.171.76 1.949 1.95 1.949.338 0 .622-.055.878-.165l-.045-.558a1.61 1.61 0 01-.797.201c-.823 0-1.336-.604-1.336-1.446 0-.833.531-1.41 1.327-1.41.275 0 .522.047.76.147l.046-.54zm6.589 1.95c.009-.083.018-.192.018-.257 0-1.253-.604-1.857-1.583-1.857-1.062 0-1.775.768-1.775 1.958 0 1.254.704 2.014 1.949 2.014.43 0 .796-.074 1.135-.23l-.028-.557a2.152 2.152 0 01-1.08.274c-.814 0-1.345-.503-1.354-1.345h2.718zm-2.709-.467c.064-.76.522-1.18 1.126-1.18.604 0 .997.384.997 1.18h-2.123zm7.093 2.242h.613V55.86h1.3v-.485h-3.222v.485h1.309v3.322zm5.272 0h.686l2.041-3.038h.027c-.036.293-.045.778-.045 1.125v1.913H280v-3.807h-.687l-2.05 3.038h-.018c.037-.292.046-.777.046-1.134v-1.904h-.613v3.807zM68.092 34.046c0 18.768-15.278 34.046-34.046 34.046C14.952 68.092 0 53.778 0 35.522c0-.781.638-1.42 1.419-1.42.78 0 1.418.639 1.418 1.42 0 16.951 13.42 29.733 31.209 29.733 17.207 0 31.209-14.002 31.209-31.21 0-17.22-14.002-31.208-31.21-31.208-12.412 0-22.328 6.61-27.236 18.158-1.447 4.426-.312 7.447.908 9.206 1.575 2.27 4.298 3.802 6.923 3.902h2.34v-3.036h6.214V29.25c0-.553.454-1.007 1.021-1.007h9.065c.567 0 1.021.454 1.021 1.007v11.235c0 .553-.454 1.022-1.021 1.022h-9.065a1.026 1.026 0 01-1.021-1.022V38.67H16.98v-1.73h-2.44c-3.546-.142-7.064-2.1-9.15-5.121-2.255-3.249-2.695-7.42-1.262-11.76 0-.029.014-.043.028-.057 0-.014 0-.043.015-.057C9.533 7.263 20.428 0 34.046 0c18.768 0 34.046 15.264 34.046 34.046z" fill="#fff"/><path d="M36.131 39.507h16.796c2.213 0 4.03-1.815 4.03-4.042v-1.192a4.035 4.035 0 00-4.03-4.029h-6l-4.894-5.291a1.43 1.43 0 00-2.015-.071 1.414 1.414 0 00-.07 2l3.106 3.362h-6.923v9.263z" fill="#fff"/></svg>