<svg width="50" height="50" fill="none" xmlns="http://www.w3.org/2000/svg"><path d="M0 3.333A3.333 3.333 0 013.333 0h43.334A3.333 3.333 0 0150 3.333v43.334A3.333 3.333 0 0146.667 50H3.333A3.333 3.333 0 010 46.667V3.333z" fill="#fff" fill-opacity=".1"/><path d="M15.078 23.818s9.583-4.025 12.906-5.442c1.274-.567 5.595-2.38 5.595-2.38s1.994-.794 1.828 1.133c-.056.793-.499 3.57-.942 6.575-.665 4.252-1.385 8.9-1.385 8.9s-.11 1.303-1.052 1.53c-.942.227-2.493-.794-2.77-1.02-.221-.17-4.154-2.721-5.594-3.968-.388-.34-.83-1.02.055-1.814a213.977 213.977 0 005.816-5.668c.665-.68 1.33-2.268-1.44-.34-3.932 2.777-7.81 5.384-7.81 5.384s-.886.567-2.548.057c-1.662-.51-3.6-1.19-3.6-1.19s-1.33-.85.941-1.757z" fill="#fff"/></svg>