<svg width="50" height="50" fill="none" xmlns="http://www.w3.org/2000/svg"><path d="M0 3.333A3.333 3.333 0 013.333 0h43.334A3.333 3.333 0 0150 3.333v43.334A3.333 3.333 0 0146.667 50H3.333A3.333 3.333 0 010 46.667V3.333z" fill="#fff" fill-opacity=".1"/><path fill-rule="evenodd" clip-rule="evenodd" d="M20.535 22.508a2.602 2.602 0 01.266-1.355c.064-.168.152-.324.263-.465.197-.266.46-.476.764-.609 0 0 .902-.088.98.033.418.723.767 1.483 1.044 2.27.138.515-.587 1.103-.587 1.103s-.459.234 0 .811c.343.431.925 1.183 1.275 1.46.37.301.762.573 1.175.811.854.472 1.013.422 1.013.422s.157.064.587-.519c.23-.31.48-.673.719-.746.276-.084 2.506 1.192 2.418 1.103.156.157.033.66.033.66s.048.562-.802 1.211c-.56.428-1.486.53-1.486.53a5.688 5.688 0 01-1.699-.39c-.905-.34-1.86-.625-3.102-1.75a12.517 12.517 0 01-2.226-2.663c-.653-1.122-.635-1.917-.635-1.917zm4.87 12.04a10.02 10.02 0 01-4.939-1.293L15 35.002l1.797-5.319a9.953 9.953 0 011.438-12.097 10.05 10.05 0 0112.106-1.704 9.994 9.994 0 014.29 4.81 9.948 9.948 0 01.455 6.417 9.98 9.98 0 01-3.57 5.362 10.042 10.042 0 01-6.112 2.077zm-.017-18.265a8.386 8.386 0 00-4.364 1.205 8.345 8.345 0 00-3.093 3.295 8.309 8.309 0 00.611 8.665l-.797 2.407.003.003-.233.679 1.353-.4a.04.04 0 00-.008-.007l1.855-.582a8.397 8.397 0 007.487.952 8.382 8.382 0 003.257-2.099 8.318 8.318 0 00.674-10.745 8.371 8.371 0 00-2.97-2.486 8.403 8.403 0 00-3.775-.887z" fill="#fff"/></svg>