<svg width="39" height="50" fill="none" xmlns="http://www.w3.org/2000/svg"><path d="M20.833 0h-15a2.5 2.5 0 00-2.5 2.5v20.917A4.174 4.174 0 000 27.5v18.333A4.172 4.172 0 004.167 50h30a4.171 4.171 0 004.166-4.167V27.5a4.171 4.171 0 00-4.166-4.167H23.333V2.5a2.5 2.5 0 00-2.5-2.5zM5 2.5a.833.833 0 01.833-.833h15a.833.833 0 01.834.833v40a.833.833 0 01-.834.833h-15A.834.834 0 015 42.5v-40zM34.167 25a2.5 2.5 0 012.5 2.5v18.333a2.5 2.5 0 01-2.5 2.5h-30a2.5 2.5 0 01-2.5-2.5V27.5a2.5 2.5 0 011.666-2.347V42.5a2.5 2.5 0 002.5 2.5h15a2.5 2.5 0 002.5-2.5V25h10.834z" fill="#fff"/><path d="M7.5 30h1.666a.833.833 0 100-1.666H7.5A.833.833 0 107.5 30zm6.666-1.666H12.5a.833.833 0 000 1.666h1.666a.833.833 0 000-1.666zm5 0H17.5a.833.833 0 000 1.666h1.666a.833.833 0 000-1.666zM7.5 33.333h1.666a.833.833 0 100-1.666H7.5a.833.833 0 100 1.666zm6.666-1.667H12.5a.833.833 0 000 1.667h1.666a.833.833 0 000-1.666zm5 0H17.5a.833.833 0 000 1.667h1.666a.833.833 0 000-1.666zM7.5 36.667h1.666a.833.833 0 100-1.667H7.5a.833.833 0 100 1.667zM14.166 35H12.5a.833.833 0 000 1.667h1.666a.833.833 0 000-1.667zm5 0H17.5a.833.833 0 000 1.667h1.666a.833.833 0 000-1.667zM7.5 40h1.666a.833.833 0 100-1.666H7.5A.833.833 0 107.5 40zm6.666-1.666H12.5a.833.833 0 000 1.666h1.666a.833.833 0 000-1.666zm5 0H17.5a.833.833 0 000 1.666h1.666a.833.833 0 000-1.666zM32.5 31.667h1.666a.833.833 0 000-1.667H32.5a.833.833 0 000 1.667zm0 3.333h1.666a.833.833 0 000-1.666H32.5a.833.833 0 000 1.666zm0 3.333h1.666a.833.833 0 000-1.666H32.5a.833.833 0 000 1.666zm0 3.334h1.666a.833.833 0 000-1.667H32.5a.833.833 0 000 1.667zm0 3.333h1.666a.833.833 0 000-1.666H32.5a.833.833 0 000 1.666zM10 5h6.666a.833.833 0 000-1.667H10A.833.833 0 1010 5zM7.5 16.666h11.666a.833.833 0 00.834-.833V7.5a.834.834 0 00-.834-.833H7.5a.833.833 0 00-.833.833v8.333a.833.833 0 00.833.833zm.833-8.333h10V15h-10V8.333zm5 10.833a3.333 3.333 0 100 6.667 3.333 3.333 0 000-6.666zm0 5a1.666 1.666 0 110-3.332 1.666 1.666 0 010 3.332zm5.834-2.499a.833.833 0 100-1.667.833.833 0 000 1.667zm0 3.333a.833.833 0 100-1.667.833.833 0 000 1.667zM7.5 21.667A.833.833 0 107.5 20a.833.833 0 000 1.667zM7.5 25a.833.833 0 100-1.667.833.833 0 000 1.667zm18.333 20h3.334a.833.833 0 00.833-.833v-3.334a.833.833 0 00-.833-.833h-3.334a.833.833 0 00-.833.833v3.334a.833.833 0 00.833.833zm.834-3.333h1.666v1.666h-1.666v-1.666zm-.834-3.333h3.334A.833.833 0 0030 37.5v-3.333a.833.833 0 00-.833-.834h-3.334a.833.833 0 00-.833.834V37.5a.833.833 0 00.833.834zM26.667 35h1.666v1.667h-1.666V35z" fill="#fff"/></svg>