<svg width="34" height="48" fill="none" xmlns="http://www.w3.org/2000/svg"><path fill-rule="evenodd" clip-rule="evenodd" d="M31.715 9.361l.856 2.089a16.542 16.542 0 010 10.443l-.856 2.088a16.709 16.709 0 01-13.962 9.399v4.177h1.044a1.044 1.044 0 011.044 1.044v6.266a3.133 3.133 0 01-6.265 0v-6.266a1.045 1.045 0 011.044-1.044h1.044V33.38a16.708 16.708 0 01-13.962-9.4l-.856-2.088a16.542 16.542 0 010-10.443l.856-2.089a16.709 16.709 0 0130.013 0zM17.753 44.867a1.044 1.044 0 11-2.089 0v-5.221h2.089v5.221zm-1.044-13.576a14.62 14.62 0 110-29.24 14.62 14.62 0 010 29.24z" fill="#fff"/><path d="M16.708 4.14a12.532 12.532 0 100 25.064 12.532 12.532 0 000-25.063zm0 22.975a10.443 10.443 0 110-20.886 10.443 10.443 0 010 20.886z" fill="#fff"/><path d="M10.443 16.672H8.354a8.355 8.355 0 008.354 8.354v-2.088a6.265 6.265 0 01-6.265-6.266zm6.266-8.354v2.088a6.266 6.266 0 016.265 6.266h2.089a8.354 8.354 0 00-8.354-8.354z" fill="#fff"/></svg>