<svg width="40" height="48" fill="none" xmlns="http://www.w3.org/2000/svg"><path d="M39.127 10.11L28.727.217C28.654.073 28.437 0 28.218 0H5.236C4.8 0 4.51.29 4.51.727v4.655H.727c-.436 0-.727.29-.727.727v41.164c0 .436.29.727.727.727H34.11c.436 0 .727-.29.727-.727v-4.655h3.782c.436 0 .727-.29.727-.727V10.618c0-.145-.072-.29-.218-.509zM28.945 2.4L36.8 9.89h-7.854V2.4zm4.437 44.145H1.455V6.836h3.054v35.055c0 .436.291.727.727.727H33.31v3.927h.073zM5.964 41.164V1.454H27.49v9.164c0 .437.29.727.727.727h9.673v29.819H5.964z" fill="#fff"/><path d="M25.382 11.345c.436 0 .727-.29.727-.727V4.145c0-.436-.291-.727-.727-.727H8.29c-.437 0-.728.29-.728.727v6.473c0 .436.291.727.728.727h17.09zM9.018 4.873h15.636V9.89H9.018V4.873zm.364 8.8c-.437 0-.728.29-.728.727V24c0 .436.291.727.728.727h10.472c.437 0 .728-.29.728-.727v-9.6c0-.436-.291-.727-.728-.727H9.382zm9.745 9.527h-9.018v-8.073h9.018V23.2z" fill="#fff"/><path d="M12.655 21.527c.145.145.29.29.509.29h.073a.786.786 0 00.509-.218l4.363-3.927a.779.779 0 00.073-1.018.779.779 0 00-1.018-.073l-3.71 3.346-1.09-1.527c-.218-.364-.655-.437-1.018-.219-.364.218-.437.655-.218 1.018l1.527 2.328zm22.399-5.017H23.273c-.437 0-.728.29-.728.727 0 .436.291.727.728.727h11.854c.437 0 .727-.291.727-.727-.072-.437-.363-.728-.8-.728zm0 5.09H23.273c-.437 0-.728.291-.728.727 0 .437.291.728.728.728h11.854c.437 0 .727-.291.727-.728-.072-.436-.363-.727-.8-.727zm0 5.091h-26.4c-.436 0-.727.291-.727.728 0 .436.291.727.728.727h26.4c.436 0 .727-.291.727-.727 0-.437-.291-.728-.727-.728zm0 5.091h-26.4c-.436 0-.727.291-.727.728 0 .436.291.727.728.727h26.4c.436 0 .727-.291.727-.727 0-.437-.291-.728-.727-.728zm0 5.091h-26.4c-.436 0-.727.29-.727.727 0 .436.291.727.728.727h26.4c.436 0 .727-.29.727-.727s-.291-.727-.727-.727z" fill="#fff"/></svg>