<svg width="58" height="46" fill="none" xmlns="http://www.w3.org/2000/svg"><path d="M57.498 34.35V5.86l.002-.027C57.5 2.617 54.868 0 51.631 0H5.87C2.632 0 0 2.617 0 5.832c0 .053 0 .105.002.156V34.35H0c0 3.215 2.632 5.833 5.87 5.833h4.555V9.59H5.87c-2.043 0-3.713-1.618-3.78-3.632v-.126h-.002c0-2.073 1.697-3.758 3.782-3.758h45.763c2.085 0 3.781 1.685 3.781 3.758h-.003v.027c-.013 2.06-1.702 3.731-3.778 3.731h-4.557v21.732H28.402v2.075h18.673v6.786h4.557c3.187 0 5.777-2.542 5.854-5.69h.012v-.114c0-.011.003-.02.003-.029h-.003zM2.089 10.29a5.863 5.863 0 003.78 1.375h2.469v26.444H5.869c-2.043 0-3.713-1.618-3.78-3.634V10.291zm49.542 27.82h-2.468V11.665h2.468c1.446 0 2.755-.543 3.779-1.408V34.38c-.014 2.058-1.702 3.73-3.779 3.73z" fill="#fff"/><path d="M22.92 27.77c0-1.767-1.202-3.245-2.832-3.71v-4.545H18v4.529c-1.655.447-2.882 1.94-2.882 3.725 0 1.376.728 2.576 1.816 3.264l-2.978 8.922-.746 5.26 2.067.283.69-4.981 2.964-8.88c.012 0 .024.003.037.003L22.841 46l2.014-.538-3.872-14.361c1.153-.675 1.938-1.907 1.938-3.331zm-3.9-1.803c1 0 1.813.81 1.813 1.803a1.81 1.81 0 01-1.813 1.802c-1 0-1.814-.808-1.814-1.802a1.81 1.81 0 011.814-1.803zm24.419-.315V6.795H17.822V16.81h4.107v-2.075h-2.02V8.87h21.443v14.708H30.24V16.81h8.42v-2.075H25.3v2.075h2.853v8.842h15.285z" fill="#fff"/></svg>