<svg width="52" height="46" fill="none" xmlns="http://www.w3.org/2000/svg"><path d="M46 41.4a2.76 2.76 0 01-2.76 2.76H4.6a2.76 2.76 0 01-2.76-2.76V9.2h41.4A2.76 2.76 0 0146 11.96v8.28h1.84v-8.28a4.6 4.6 0 00-4.6-4.6h-.92v-4.6A2.76 2.76 0 0039.56 0H2.76A2.76 2.76 0 000 2.76V41.4A4.6 4.6 0 004.6 46h38.64a4.6 4.6 0 004.6-4.6v-8.28H46v8.28zM2.76 1.84h36.8a.92.92 0 01.92.92v4.6H1.84v-4.6a.92.92 0 01.92-.92zm46 19.32h-9.2a2.76 2.76 0 00-2.76 2.76v5.52a2.76 2.76 0 002.76 2.76h9.2a2.76 2.76 0 002.76-2.76v-5.52a2.76 2.76 0 00-2.76-2.76zm.92 8.28a.92.92 0 01-.92.92h-9.2a.92.92 0 01-.92-.92v-5.52a.92.92 0 01.92-.92h9.2a.92.92 0 01.92.92v5.52zM46 26.68a1.84 1.84 0 11-3.68 0 1.84 1.84 0 013.68 0zM43.24 41.4H13.8v-1.84h29.44v1.84zM28.52 5.52H4.6V3.68h23.92v1.84zm9.2 0h-7.36V3.68h7.36v1.84zM4.6 41.4v-1.84h7.36v1.84H4.6z" fill="#fff"/></svg>