<svg width="44" height="44" fill="none" xmlns="http://www.w3.org/2000/svg"><path d="M.825 34.355a2.827 2.827 0 000 3.993l4.827 4.826a2.802 2.802 0 001.995.827c.755 0 1.464-.294 1.997-.827L22.418 30.4a2.793 2.793 0 00.794-1.669l3.576 3.576a8.792 8.792 0 002.158 8.924 8.76 8.76 0 008.96 2.142c.01-.003.019-.009.03-.013a.924.924 0 00.093-.041c.028-.014.057-.028.084-.044.025-.015.048-.033.072-.051a.959.959 0 00.084-.069c.008-.007.016-.012.024-.02.012-.012.022-.027.033-.04a.913.913 0 00.223-.424.925.925 0 00.025-.28 1.28 1.28 0 00-.009-.094 1.05 1.05 0 00-.022-.1c-.005-.019-.006-.037-.012-.056-.004-.01-.01-.019-.013-.029a1.02 1.02 0 00-.042-.094 1.133 1.133 0 00-.044-.085l-.05-.07a.949.949 0 00-.071-.087l-.019-.023-3.313-3.313a1.39 1.39 0 01-.002-1.963l1.661-1.662c.262-.262.61-.406.98-.406.372 0 .72.145.984.408l3.313 3.314.023.019a.972.972 0 00.084.069c.024.017.048.035.073.05.026.017.054.03.082.044a.91.91 0 00.096.043c.01.003.019.01.029.013.01.003.02.002.03.005a.983.983 0 00.27.043h.01a.989.989 0 00.264-.041l.053-.016a.972.972 0 00.235-.118c.013-.009.024-.02.036-.03.034-.026.069-.05.1-.08.025-.026.044-.055.066-.082.012-.015.025-.029.036-.045a.957.957 0 00.125-.242c.003-.007.008-.012.01-.019a8.756 8.756 0 00-2.142-8.96 8.787 8.787 0 00-8.92-2.157l-5.84-5.84 10.148-10.15a1.418 1.418 0 011.118-.417h.018a3.396 3.396 0 003.189-1.74l2.77-4.99a.978.978 0 00-.165-1.166l-1.018-1.019-.781-.782-.237-.236A.977.977 0 0040.51.123l-4.991 2.77a3.406 3.406 0 00-1.74 3.205c.03.416-.123.824-.417 1.118l-10.15 10.15-5.839-5.84a8.787 8.787 0 00-2.157-8.92A8.757 8.757 0 006.256.462c-.01.003-.019.009-.028.013a.924.924 0 00-.096.042.946.946 0 00-.083.044c-.025.015-.048.033-.072.05a.963.963 0 00-.085.07L5.87.7c-.013.013-.022.028-.034.042a.918.918 0 00-.222.422 1.002 1.002 0 00-.025.283c.002.03.004.06.009.09.005.036.014.07.023.105.005.018.006.036.012.053.003.01.008.019.012.029a.924.924 0 00.043.096c.014.028.027.056.043.083a.86.86 0 00.05.07c.023.03.046.06.072.088.007.006.01.014.018.021l3.313 3.313a1.39 1.39 0 01.002 1.964L7.526 9.02c-.54.541-1.422.54-1.965-.002L2.247 5.706c-.008-.008-.016-.012-.023-.02a.91.91 0 00-.086-.07l-.071-.05a.825.825 0 00-.085-.044.867.867 0 00-.093-.04l-.03-.014c-.018-.006-.037-.007-.055-.012a.835.835 0 00-.195-.031 1.014 1.014 0 00-.28.024.928.928 0 00-.268.11.938.938 0 00-.159.116c-.013.011-.026.019-.038.03l-.019.023a1.019 1.019 0 00-.07.087c-.018.024-.036.047-.05.071-.016.027-.03.055-.044.083-.015.032-.03.063-.042.095l-.014.03a8.765 8.765 0 002.143 8.959 8.79 8.79 0 006.224 2.582 8.81 8.81 0 002.694-.43l3.581 3.581a2.791 2.791 0 00-1.668.795L.825 34.355zm30.705-5.908l.002.002.001.002c.018.017.039.03.057.046.03.025.057.051.088.072a.975.975 0 00.938.084 6.837 6.837 0 017.395 1.513 6.809 6.809 0 011.991 5.286l-2.017-2.018a3.326 3.326 0 00-2.365-.98h-.002a3.32 3.32 0 00-2.361.977l-1.663 1.662a3.35 3.35 0 00.003 4.73l2.016 2.015a6.81 6.81 0 01-5.284-1.99 6.84 6.84 0 01-1.523-7.371.964.964 0 00.258-.182l.826-.83a.978.978 0 00-1.388-1.38l-.583.588-4.147-4.147.014-.014a2.64 2.64 0 00.374-3.251l1.091-1.092 6.279 6.278zm3.215-19.849a3.397 3.397 0 00.986-2.638c-.04-.554.25-1.088.737-1.358l4.347-2.412.994.994-2.412 4.347c-.27.486-.794.778-1.359.737h-.019a3.387 3.387 0 00-2.62.987l-12.567 12.57-.328-.329-.328-.328 1.728-1.728.001-.001 10.84-10.841zM4.151 13.671a6.809 6.809 0 01-1.99-5.285l2.016 2.016c.653.653 1.51.98 2.367.98a3.33 3.33 0 002.362-.977l1.662-1.662a3.348 3.348 0 00-.003-4.73L8.548 1.998a6.807 6.807 0 015.285 1.99 6.834 6.834 0 011.552 7.288.977.977 0 00-.13.107l-.827.83a.978.978 0 001.387 1.38l.429-.431 5.586 5.586-1.091 1.092a2.614 2.614 0 00-3.254.376l-.012.012-4.823-4.824a.976.976 0 00-1.072-.23 6.843 6.843 0 01-7.427-1.502zm12.058 9.294l.64.64a.978.978 0 001.388-1.377l.633-.633c.26-.26.708-.26.968 0l2.566 2.567c.267.266.267.7-.003.97l-.63.63-1.598-1.6a.978.978 0 00-1.383 1.384l2.246 2.245a.869.869 0 010 1.226L8.26 41.791a.888.888 0 01-1.227 0l-4.826-4.826a.87.87 0 010-1.227l12.774-12.773a.888.888 0 011.227 0z" fill="#fff"/><path d="M4.549 37.82c.25 0 .5-.095.691-.286l2.014-2.014a.978.978 0 00-1.383-1.383L3.858 36.15a.978.978 0 00.69 1.67zm9.63-6.773L6.466 38.76l1.383 1.383 7.712-7.713a.978.978 0 10-1.382-1.383z" fill="#fff"/><path d="M8.349 34.018c.25 0 .5-.095.69-.285l5.874-5.866a.751.751 0 011.06.003l.177.177a.736.736 0 01-.015 1.046l1.397 1.368a2.689 2.689 0 000-3.798l-.177-.177a2.709 2.709 0 00-3.824-.003l-5.873 5.866a.978.978 0 00.69 1.67z" fill="#fff"/></svg>