<svg width="51" height="47" fill="none" xmlns="http://www.w3.org/2000/svg"><path d="M50.373 26.525c.02-.063.042-.126.052-.19a.824.824 0 00-.02-.146c-.011-.084-.011-.179-.032-.263v-.01l-7.07-20.182L49.9 1.963c.504-.284.683-.925.389-1.429A1.04 1.04 0 0048.86.145l-7.354 4.203a1.05 1.05 0 00-.473 1.26l1.261 3.604a6.71 6.71 0 01-4.36.861l-.252-.032-8.058-1.155a23.8 23.8 0 00-6.692 0l-8.604 1.23a7.144 7.144 0 01-3.94-.579l1.114-2.847a1.05 1.05 0 00-.472-1.302L1.575.135C1.049-.15.408.03.135.534a1.045 1.045 0 00.4 1.429L9.19 6.774.072 30.086c-.21.536.053 1.145.6 1.366.125.042.251.063.377.063.42 0 .82-.252.977-.672l.81-2.06 2.153 1.503-.368.367a4.216 4.216 0 00-1.218 2.963c0 1.103.44 2.185 1.218 2.962a3.84 3.84 0 002.732 1.125c.462 0 .924-.095 1.365-.253.137.841.515 1.64 1.156 2.28a3.84 3.84 0 002.731 1.124c.42 0 .83-.084 1.24-.22a4.15 4.15 0 001.166 2.353 3.788 3.788 0 002.721 1.134h.01a3.88 3.88 0 002.175-.672l1.313 1.313c.83.83 1.912 1.271 2.994 1.271a3.94 3.94 0 001.65-.367 3.983 3.983 0 002.154-2.542c.724.63 1.607.966 2.5.966.683 0 1.366-.19 1.954-.588a3.732 3.732 0 001.523-2.112c.578.273 1.187.42 1.797.42a3.89 3.89 0 002.132-.63 3.971 3.971 0 001.692-2.416c.588.336 1.25.525 1.943.525.084 0 .168 0 .242-.01 1.04-.064 1.964-.536 2.584-1.335a3.609 3.609 0 00.767-2.237 3.64 3.64 0 00-1.072-2.585l-.514-.515 6.492-5.567s0-.011.01-.011a.97.97 0 00.18-.231c.02-.032.052-.063.073-.095.02-.042.02-.115.042-.178zm-44.26 8.562a2.093 2.093 0 01-.61-1.471c0-.546.221-1.093.61-1.47l.62-.62 3.193 2.237-.052.042-1.282 1.282a1.738 1.738 0 01-2.479 0zm5.253 3.151a2.086 2.086 0 010-2.941l.189-.2 2.72 2.721-.42.42a1.769 1.769 0 01-2.49 0zm6.377 3.793c-.01 0-.01 0 0 0-.473 0-.904-.179-1.24-.515-.4-.4-.62-.924-.62-1.47 0-.18.032-.358.084-.526l2.395 2.406c-.2.063-.41.105-.62.105zm24.982-5.368a1.39 1.39 0 01-1.05.525 1.882 1.882 0 01-1.44-.546l-1.67-1.67-10.506-10.506a1.046 1.046 0 10-1.481 1.48l10.505 10.506c.358.358.557.84.557 1.356a1.89 1.89 0 01-.861 1.607c-.746.494-1.839.326-2.553-.389l-1.177-1.176-8.142-8.142a1.046 1.046 0 10-1.48 1.481l8.14 8.142c.295.294.463.683.463 1.093 0 .304-.094.882-.725 1.313-.578.399-1.439.262-2.006-.294l-2.29-2.29-6.304-6.304a1.046 1.046 0 10-1.481 1.481l6.303 6.304c.357.357.557.84.557 1.355 0 .767-.42 1.418-1.114 1.754-.703.337-1.628.137-2.248-.493l-10.41-10.411a.72.72 0 00-.137-.116l-8.541-5.978L9.61 11.46a9.305 9.305 0 005.011.683l8.363-1.198c-.105.084-.21.158-.315.252l-3.31 2.92a4.49 4.49 0 00-1.502 3.194 4.41 4.41 0 001.303 3.278 4.414 4.414 0 005.956.294l2.08-1.702L42.61 34.593c.294.294.462.683.462 1.093a1.718 1.718 0 01-.346.977zm-11.136-16.01a6.986 6.986 0 003.299-.83l2.9-1.566c.514-.273.703-.914.43-1.418a1.046 1.046 0 00-1.418-.431l-2.91 1.565a4.954 4.954 0 01-5.83-.861l-.064-.063a1.06 1.06 0 00-1.408-.074l-2.815 2.311a2.328 2.328 0 01-3.141-.157 2.304 2.304 0 01-.683-1.723c.02-.651.304-1.25.788-1.681l3.309-2.92a7.34 7.34 0 015.904-1.765l7.417 1.06 3.456.494a1.05 1.05 0 001.187-.893v-.052c.337-.126.662-.284.988-.452l5.158 14.729-6.072 5.2-10.495-10.474z" fill="#fff"/></svg>