<svg version="1.0" xmlns="http://www.w3.org/2000/svg" width="933.333" height="933.333" viewBox="0 0 700 700"><path d="M0 350v350h700V0H0v350zm374.8-231.9c41.3 4.4 81.7 20.4 115.4 45.6 13.1 9.8 36.2 32.9 45.9 45.8 22.9 30.8 37.2 64 44.1 102.2 2 11.1 2.3 16.1 2.3 38.3 0 28.2-1.5 39.9-7.6 61.7-23.8 84.9-93.1 149.7-178.1 166.7-36.8 7.4-77 6-112.9-4-83.3-23-145.4-87.4-162.4-168.4-4-18.7-5.8-46.7-3.4-51.2 1.4-2.6 6.7-4.8 10.2-4.1 1.5.3 3.8 1.9 5.2 3.5 2 2.4 2.5 4 2.5 8.8 0 3.2.5 10.4 1 16.1 8.6 88.5 69.6 157.4 157.5 178.2 19.7 4.7 32.3 6.1 54.5 6.1 22.8 0 35.3-1.5 54.7-6.5C462.5 541.8 513.6 500.4 541 446c41.3-82.1 25.4-181.4-39.5-246.6-45.4-45.5-107.6-68.2-171.5-62.3-62.8 5.7-113.9 36.3-148 88.5-8.4 12.9-18.2 32.5-20.5 40.9-.9 3.3-1.9 11.2-2.2 17.5-.5 9.7-.2 12.9 1.6 19.9 3.8 15.2 12.2 27 25.7 36 11 7.4 20.4 10.1 35 10.1H233v-20l21.3-.2 21.2-.3.3-6.5c.1-3.6.4-7.4.7-8.6.9-4 3.9-4.4 38.1-4.4h32.5l2.4 2.5 2.5 2.4v40.4c0 39.4-.1 40.5-2.1 43.1l-2 2.6h-34c-40.3 0-37.9.7-37.9-11.5V382h-43v-11.7l-13.2-.6c-14.6-.6-21.7-2.2-32.4-7.2-10.5-4.8-18.1-10.3-26.5-19.3-20.8-22-27-55.2-16.4-86.9 5.7-16.8 21.4-44 35.8-61.8 8.3-10.3 24.9-26.3 35.5-34.4 31.7-24 68.1-37.9 111.2-42.4 8.1-.9 38.8-.6 47.8.4zm34.4 174.6c4.1 4.3 12.4 13.1 18.3 19.5l10.8 11.8h22.8c27.1 0 30.7.8 38.1 8.8 6.3 6.7 8.1 12.7 7.6 25-.3 8.4-.8 10.4-3.3 15-1.6 3-4.6 6.7-6.6 8.3-7.6 6-6.5 5.9-72.5 5.9H364v-63h47.3l-2.4-2.9c-1.3-1.6-6.6-7.5-11.6-13-8.1-8.8-9.3-10.5-9.3-13.7 0-5.1 4.4-9.4 9.8-9.4 3.6 0 4.6.7 11.4 7.7z"/></svg>