<svg width="159" height="61" fill="none" xmlns="http://www.w3.org/2000/svg"><path d="M16.754 60.833s5.068-9.757 7.656-14.687H.11V4.056h9.716v31.921h19.74v-31.9h10.045V36.1h8.32c-3.102 5.875-6.08 11.544-9.08 17.193-1.212 2.3-4.1 7.54-4.1 7.54H16.754zm81.853-14.996H45.404c.349-.74.637-1.397.965-2.034 1.233-2.342 2.506-4.683 3.698-7.046.308-.596.637-.78 1.253-.74.637.062 1.315-.06 1.951.021.904.123 1.335-.308 1.705-1.047 1.91-3.739 3.37-7.642 3.965-11.812.267-1.91.39-3.841.431-5.772.062-4.067.02-8.135.02-12.222v-1.15h34.264v31.983c1.377 0 2.63.04 3.883-.02.76-.021 1.109.163 1.088 1.026-.04 2.938-.02 5.834-.02 8.813zm-33.319-9.88H83.57V13.893H69.397c-.021 7.621-1.192 14.975-4.109 22.062zm71.547-27.772c-1.499 2.855-2.999 5.71-4.56 8.71-3.02-3.061-6.573-4.355-10.661-3.842-2.999.39-5.567 1.787-7.498 4.15-4.334 5.3-3.451 12.51 1.253 16.803 3.698 3.39 12.264 4.97 17.789-1.89l7.519 5.485c-5.3 8.175-18.426 12.571-29.314 5.32-10.558-7.025-12.88-20.953-5.32-30.915 7.991-10.6 22.083-10.99 30.792-3.821z" fill="#fff"/><path d="M140.923.153l-12.735 24.548h18.179L159 .153h-18.077zM29.227 36L16 61h18.88L48 36H29.227z" fill="#fff"/></svg>