<svg width="165" height="111" fill="none" xmlns="http://www.w3.org/2000/svg"><path d="M47.369 22.724L.5 99.001l49.626-60.348 8.883 10.722-8.883 27.57 15.316-21.443 9.19 9.19-9.19-13.479 16.542-25.425 15.623 25.425-6.126 13.479 9.189-9.19 15.93 21.443-11.028-27.57L116.6 38.653 165 99.001l-48.4-76.277-13.785 22.362L81.985.056l-20.219 45.03L47.37 22.724z" fill="#fff"/><path d="M55.333 81.54l-29.101 29.408h8.883l24.507-23.894v23.894h7.658V81.54H55.333z" fill="#fff"/><path d="M66.668 68.674L61.46 73.88h17.767v37.067h6.74V73.882h17.767l-5.208-5.208H66.668z" fill="#fff"/><path d="M98.22 81.233l-4.902 5.82v18.074l4.902 5.821h45.949l4.289-5.821h-48.4V87.054h30.02l-4.595-5.82H98.22z" fill="#fff"/></svg>