<svg width="137" height="96" fill="none" xmlns="http://www.w3.org/2000/svg"><path d="M9.336 85.674c-.033.734-.232 1.384-.594 1.95-.362.56-.872.995-1.53 1.304-.652.31-1.399.464-2.24.464-1.386 0-2.478-.452-3.276-1.355C.9 87.133.5 85.856.5 84.209v-.522c0-1.034.179-1.938.537-2.71.362-.779.881-1.378 1.558-1.798.677-.426 1.46-.638 2.349-.638 1.28 0 2.31.338 3.088 1.014.778.672 1.22 1.6 1.326 2.784H6.821c-.02-.643-.181-1.104-.486-1.385-.304-.28-.768-.42-1.391-.42-.633 0-1.097.237-1.392.71-.295.474-.45 1.23-.464 2.27v.746c0 1.126.14 1.93.42 2.414.285.483.774.725 1.465.725.584 0 1.031-.138 1.34-.413.31-.276.474-.713.494-1.313h2.53zm10.162-5.017H16.33v8.59h-2.544v-8.59h-3.11v-1.964h8.822v1.964zm4.515 5.01v3.58H21.47V78.693h4.211c.808 0 1.52.15 2.139.45a3.302 3.302 0 011.442 1.268c.343.546.515 1.167.515 1.863 0 1.03-.37 1.853-1.11 2.472-.734.613-1.744.92-3.029.92h-1.624zm0-1.965h1.667c.493 0 .868-.123 1.124-.37.26-.246.391-.594.391-1.044 0-.493-.133-.886-.398-1.181-.266-.295-.628-.445-1.088-.45h-1.696v3.045zm16.954.486c0 1.029-.19 1.94-.572 2.732-.382.793-.926 1.404-1.632 1.834-.7.425-1.5.638-2.399.638s-1.696-.205-2.392-.616c-.696-.416-1.24-1.008-1.63-1.776-.387-.768-.59-1.65-.61-2.646v-.594c0-1.034.189-1.945.566-2.733.381-.793.925-1.404 1.63-1.834.711-.43 1.518-.645 2.422-.645.894 0 1.691.213 2.392.638.7.425 1.244 1.032 1.63 1.82.392.782.59 1.681.595 2.696v.486zm-2.588-.443c0-1.048-.176-1.843-.529-2.385-.348-.546-.848-.819-1.5-.819-1.276 0-1.95.957-2.023 2.87l-.007.776c0 1.035.172 1.83.515 2.385.343.556.853.834 1.53.834.642 0 1.137-.273 1.485-.82.348-.545.524-1.33.53-2.355v-.486zm10.981-5.052h2.544v10.554H49.36v-6.654l-3.79 6.654h-2.545V78.693h2.544v6.662l3.791-6.662zm.805-2.841c0 .661-.244 1.198-.732 1.609-.488.41-1.138.616-1.95.616s-1.462-.206-1.95-.616c-.488-.411-.732-.948-.732-1.61h1.66c0 .29.09.517.268.682.184.16.435.239.754.239s.565-.077.74-.232c.178-.16.267-.389.267-.689h1.675zm13.054 13.395h-2.544v-8.59h-3.791v8.59h-2.545V78.693h8.88v10.554zm5.022-3.58v3.58h-2.544V78.693h4.212c.807 0 1.52.15 2.138.45a3.302 3.302 0 011.443 1.268c.343.546.514 1.167.514 1.863 0 1.03-.37 1.853-1.109 2.472-.734.613-1.745.92-3.03.92h-1.624zm0-1.965h1.668c.492 0 .867-.123 1.123-.37.261-.246.392-.594.392-1.044 0-.493-.133-.886-.4-1.181-.265-.295-.627-.445-1.086-.45H68.24v3.045zm16.954.486c0 1.029-.19 1.94-.572 2.732-.382.793-.926 1.404-1.631 1.834-.701.425-1.5.638-2.4.638-.898 0-1.696-.205-2.392-.616-.696-.416-1.24-1.008-1.63-1.776-.387-.768-.59-1.65-.61-2.646v-.594c0-1.034.189-1.945.566-2.733.382-.793.925-1.404 1.63-1.834.711-.43 1.518-.645 2.422-.645.894 0 1.691.213 2.392.638.7.425 1.244 1.032 1.63 1.82.392.782.59 1.681.595 2.696v.486zm-2.587-.443c0-1.048-.177-1.843-.53-2.385-.348-.546-.848-.819-1.5-.819-1.276 0-1.95.957-2.023 2.87l-.007.776c0 1.035.172 1.83.515 2.385.343.556.853.834 1.53.834.642 0 1.137-.273 1.485-.82.348-.545.525-1.33.53-2.355v-.486zm11.908-3.088h-4.588v8.59h-2.544V78.693h7.132v1.964zm4.595 5.01v3.58h-2.544V78.693h4.211c.807 0 1.52.15 2.139.45a3.3 3.3 0 011.442 1.268c.343.546.515 1.167.515 1.863 0 1.03-.37 1.853-1.109 2.472-.735.613-1.745.92-3.03.92h-1.624zm0-1.965h1.667c.493 0 .868-.123 1.124-.37.261-.246.391-.594.391-1.044 0-.493-.133-.886-.398-1.181-.266-.295-.629-.445-1.088-.45h-1.696v3.045zm14.562 1.073h-4.001v2.515h4.726v1.957h-7.271V78.693h7.285v1.964h-4.74v2.226h4.001v1.892zm11.191.898c-.034.735-.232 1.385-.594 1.95-.363.56-.873.996-1.53 1.305-.652.31-1.399.464-2.24.464-1.387 0-2.479-.452-3.276-1.355-.798-.904-1.196-2.18-1.196-3.828v-.522c0-1.034.179-1.938.536-2.71.363-.779.882-1.378 1.559-1.798.676-.426 1.459-.638 2.348-.638 1.281 0 2.31.338 3.088 1.014.778.672 1.22 1.6 1.327 2.784h-2.537c-.02-.643-.182-1.104-.486-1.385-.304-.28-.768-.42-1.392-.42-.633 0-1.097.237-1.391.71-.295.474-.45 1.23-.464 2.27v.746c0 1.126.14 1.93.42 2.414.285.483.773.725 1.464.725.585 0 1.032-.138 1.341-.413.31-.276.474-.713.493-1.313h2.53zm10.633 0c-.034.735-.232 1.385-.594 1.95-.363.56-.873.996-1.53 1.305-.652.31-1.399.464-2.24.464-1.387 0-2.479-.452-3.276-1.355-.798-.904-1.196-2.18-1.196-3.828v-.522c0-1.034.179-1.938.536-2.71.363-.779.882-1.378 1.559-1.798.676-.426 1.459-.638 2.348-.638 1.281 0 2.31.338 3.088 1.014.778.672 1.22 1.6 1.327 2.784h-2.537c-.02-.643-.182-1.104-.486-1.385-.304-.28-.768-.42-1.392-.42-.633 0-1.097.237-1.392.71-.294.474-.449 1.23-.463 2.27v.746c0 1.126.14 1.93.42 2.414.285.483.773.725 1.464.725.585 0 1.032-.138 1.341-.413.31-.276.474-.713.493-1.313h2.53zM51.464 11.381L72.742 0v7.918L51.464 19.299v-7.918zm37.113.495L74.722 0v7.918l13.855 10.886v-6.928zm9.897 9.154l-8.412-8.659v7.918l8.412 6.433V21.03zm0 7.919l-8.412-7.176v7.918l8.412 6.433v-7.175zm0 9.401l-8.412-5.69v7.918l8.66 4.7-.248-6.927zm1.485 9.898l-9.897-4.701v9.65l9.897 2.474v-7.423zm0 10.144l-9.897-1.98V67.3h10.392l-.495-8.908zm-12.124-2.227l-13.113-2.722v13.609h13.113V56.165zm-52.206-8.413l13.856-3.711v7.918l-13.856 3.71v-7.917zm0-10.886l13.856-3.712v7.918l-13.856 3.711v-7.917zm0-10.392l13.856-3.711v7.917l-13.856 3.712v-7.918zm0-11.381l13.856-3.711v7.917l-13.856 3.712v-7.918zm0 44.042l13.856-3.217v11.134H35.629v-7.918zm16.059-2.775l21.054-2.917V67.3l-21.278-.243.224-10.696z" fill="#fff"/></svg>