<svg width="127" height="93" fill="none" xmlns="http://www.w3.org/2000/svg"><path d="M65.797 92.512c-.26-1.744-.482-3.302 2.078-3.525 1.448-.111 2.041-1.41 2.153-2.82.334-3.86.705-7.757.965-11.616.185-2.635.148-2.635 2.857-2.635h10.28v20.077h-3.414V75.108h-6.42c-.26 3.005-.52 6.086-.78 9.129-.111 1.336-.223 2.709-.408 4.045-.297 2.19-1.67 3.488-3.637 4.23h-3.674zm60.861-6.68c-.148.52-.334 1.04-.482 1.559-.742 2.264-2.078 4.082-4.528 4.416-2.115.297-4.341.408-6.42.074-3.006-.445-4.861-2.635-5.084-6.012-.223-2.82-.111-5.678.223-8.498.371-3.154 2.375-4.973 5.529-5.307 1.782-.185 3.6-.148 5.344.112 2.301.334 3.934 1.707 4.676 3.97.26.743.483 1.522.742 2.264v7.422zm-3.711-3.785c0-1.373.037-2.71-.037-4.082-.074-1.707-1.224-2.784-2.969-2.97-3.599-.407-5.789.335-6.271 2.153-.075.223-.075.483-.075.743v8.164c0 1.67.928 2.746 2.487 2.969 1.373.185 2.82.185 4.23.037 1.708-.223 2.561-1.41 2.598-3.08.074-1.336.037-2.635.037-3.934zM87.321 92.512c.037-.556.112-1.113.075-1.67-.075-1.002.334-1.41 1.298-1.595 2.45-.52 2.932-1.15 3.118-3.6.37-4.49.779-8.98 1.187-13.731h8.721c4.268 0 4.305 0 4.305 4.194v13.174c0 3.117 0 3.117-3.451 2.672V75.107h-6.457c-.223 2.487-.409 5.01-.631 7.497-.149 1.596-.26 3.191-.409 4.787-.222 2.412-1.299 4.194-3.636 5.084-1.41.037-2.784.037-4.12.037zM71.104 48.684H54.59c-1.93 0-2.078-.296-1.15-2.04 1.113-2.005 2.337-3.934 3.377-5.975.667-1.262 1.558-1.707 2.931-1.67 7.237.074 14.473.037 21.71 0 .705 0 1.41-.409 2.115-.631-.52-.78-.927-1.67-1.633-2.264-.445-.371-1.299-.371-1.966-.371-7.311-.037-14.585 0-21.896-.037-1.521 0-2.523.482-3.266 1.892-1.447 2.747-3.08 5.344-4.564 8.053-1.15 2.079-2.858 3.155-5.27 3.044-1.93-.075-3.822 0-5.752-.038-3.377 0-4.193-1.447-2.486-4.453 5.232-9.166 10.502-18.333 15.735-27.499 2.783-4.861 5.566-9.76 8.386-14.621 1.596-2.784 3.192-2.747 4.862 0 1.002 1.632 1.967 3.302 3.006 4.898 1.336 2.041 1.262 4.045.074 6.086a2589.59 2589.59 0 00-9.834 17.22 16.7 16.7 0 00-.631 1.113c-.742 1.484-.408 2.078 1.262 2.078 4.639.037 9.277 0 13.916 0h6.866c2.226 0 3.896.928 5.01 2.895 1.484 2.635 3.006 5.27 4.49 7.904 1.596 2.858.742 4.342-2.486 4.38-5.418.036-10.874.036-16.292.036zM67.727 9.978a39.621 39.621 0 00-1.225-1.855c-.52.408-1.261.705-1.558 1.224-3.006 5.159-5.975 10.391-8.944 15.587a3374.34 3374.34 0 00-11.207 19.631c-.26.446-.149 1.076-.223 1.633.594.037 1.336.371 1.707.111.816-.556 1.67-1.261 2.19-2.115 6.16-10.688 12.246-21.413 18.37-32.138.37-.593.556-1.224.89-2.078zM0 91.955c1.596-4.639 3.08-9.129 4.639-13.62 1.336-3.896 2.746-7.792 3.97-11.726.372-1.188.928-1.559 2.079-1.485 1.224.112 2.45.037 3.748.037 3.043 8.944 6.086 17.814 9.24 27.017-1.298 0-2.337.111-3.302-.037-.446-.074-1.002-.631-1.188-1.114-.594-1.484-.965-3.08-1.633-4.527-.222-.52-1.002-1.076-1.521-1.113a118.724 118.724 0 00-8.907 0c-.52.037-1.224.63-1.484 1.15-.483.928-.742 1.967-1.076 2.969-1.002 2.895-1.002 2.895-4.565 2.45zm16.143-9.908a2861.023 2861.023 0 01-4.342-12.618c-.148.037-.334.037-.482.074-1.41 4.12-2.784 8.239-4.23 12.544h9.054zm47.131.259c-.149 1.596-.186 3.192-.52 4.75-.52 2.598-2.152 4.417-4.75 4.788-2.115.297-4.342.334-6.42-.037-3.155-.557-4.676-2.97-4.862-5.975a48.11 48.11 0 01.223-8.647c.297-2.858 2.412-4.676 5.307-5.121.408-.074.853-.149 1.262-.149 7.459-.334 9.611 2.004 9.76 10.391zm-3.748-.222c0-1.374.037-2.71-.038-4.083-.074-1.818-1.187-2.857-3.08-3.005-3.933-.297-5.678.37-6.16 2.3-.074.223-.074.483-.074.742 0 2.635-.037 5.307 0 7.942.037 1.893 1.224 2.97 3.191 3.155 3.637.334 5.53-.372 6.012-2.264.111-.408.111-.854.111-1.299.038-1.113.038-2.3.038-3.488zm-32.324 9.872V72.064h15.512v19.78c-.222.112-.334.223-.445.223-2.969.149-2.969.149-2.969-2.709V74.959h-7.607c-1.3 0-1.04.965-1.04 1.707v12.618c0 3.154 0 3.154-3.45 2.672z" fill="#fff"/><path d="M81.755 30.315c-1.04.148-1.559.26-2.115.26-4.936 0-9.872 0-14.808.037-1.261 0-1.818-.408-1.113-1.67 2.672-4.639 5.381-9.278 8.053-13.917.074-.148.26-.26.816-.705 3.044 5.307 6.012 10.503 9.167 15.995z" fill="#fff"/></svg>