<svg width="293" height="194" fill="none" xmlns="http://www.w3.org/2000/svg"><path d="M68.012 0C30.5 0 0 31.417 0 70.055c0 34.328 23.909 63.266 56.345 69.032 1.779 24.681-17.997 45.482-18.206 45.698-1.674 1.778-2.04 4.419-.837 6.521.994 1.724 2.72 2.694 4.551 2.694.419 0 .89-.054 1.36-.216 94.955-27.16 92.967-118.825 92.81-123.836C135.919 31.363 105.47 0 68.012 0zm224.961 69.948C292.869 31.363 262.42 0 224.962 0c-37.511 0-68.012 31.417-68.012 70.055 0 34.328 23.909 63.266 56.345 69.032 1.779 24.681-17.997 45.482-18.206 45.698-1.674 1.778-2.041 4.419-.837 6.521.994 1.724 2.72 2.694 4.551 2.694.419 0 .89-.054 1.36-.216 94.955-27.16 92.967-118.825 92.81-123.836z" opacity=".05" fill="#fff"/></svg>